<svg width="108" height="72" viewBox="0 0 108 72" fill="none" xmlns="http://www.w3.org/2000/svg">
<path d="M21.4222 27.934C23.4462 27.934 24.9029 27.451 25.7922 26.485C26.6815 25.519 27.1262 24.1697 27.1262 22.437C27.1262 21.6703 27.0112 20.9727 26.7812 20.344C26.5512 19.7153 26.1985 19.1787 25.7232 18.734C25.2632 18.274 24.6729 17.9213 23.9522 17.676C23.2469 17.4307 22.4035 17.308 21.4222 17.308H17.3742V27.934H21.4222ZM21.4222 11.489C23.7835 11.489 25.8075 11.7727 27.4942 12.34C29.1962 12.892 30.5915 13.6587 31.6802 14.64C32.7842 15.6213 33.5969 16.779 34.1182 18.113C34.6395 19.447 34.9002 20.8883 34.9002 22.437C34.9002 24.1083 34.6319 25.6417 34.0952 27.037C33.5585 28.4323 32.7382 29.6283 31.6342 30.625C30.5302 31.6217 29.1272 32.4037 27.4252 32.971C25.7385 33.523 23.7375 33.799 21.4222 33.799H17.3742V45H9.60019V11.489H21.4222ZM64.1903 36.329C64.3743 36.329 64.5583 36.3673 64.7423 36.444C64.9263 36.5053 65.1027 36.6203 65.2713 36.789L68.3533 40.032C67.004 41.7953 65.3097 43.1293 63.2703 44.034C61.2463 44.9233 58.8467 45.368 56.0713 45.368C53.526 45.368 51.2413 44.9387 49.2173 44.08C47.2087 43.206 45.499 42.01 44.0883 40.492C42.693 38.9587 41.6197 37.1493 40.8683 35.064C40.117 32.9633 39.7413 30.6863 39.7413 28.233C39.7413 25.7337 40.1477 23.4413 40.9603 21.356C41.773 19.2553 42.9153 17.446 44.3873 15.928C45.8593 14.41 47.6227 13.2293 49.6773 12.386C51.732 11.5427 53.9937 11.121 56.4623 11.121C57.7197 11.121 58.9003 11.236 60.0043 11.466C61.1237 11.6807 62.1663 11.9873 63.1323 12.386C64.0983 12.7693 64.9877 13.237 65.8003 13.789C66.613 14.341 67.3337 14.939 67.9623 15.583L65.3403 19.102C65.1717 19.3167 64.9723 19.516 64.7423 19.7C64.5123 19.8687 64.1903 19.953 63.7763 19.953C63.5003 19.953 63.2397 19.8917 62.9943 19.769C62.749 19.6463 62.4883 19.5007 62.2123 19.332C61.9363 19.148 61.6297 18.9563 61.2923 18.757C60.9703 18.5423 60.5793 18.3507 60.1193 18.182C59.6747 17.998 59.1457 17.8447 58.5323 17.722C57.9343 17.5993 57.229 17.538 56.4163 17.538C55.1283 17.538 53.9477 17.7757 52.8743 18.251C51.8163 18.7263 50.8963 19.424 50.1143 20.344C49.3477 21.2487 48.7497 22.368 48.3203 23.702C47.9063 25.0207 47.6993 26.531 47.6993 28.233C47.6993 29.9503 47.9293 31.476 48.3893 32.81C48.8647 34.144 49.501 35.271 50.2983 36.191C51.111 37.0957 52.054 37.7857 53.1273 38.261C54.2007 38.7363 55.3507 38.974 56.5773 38.974C57.2827 38.974 57.9267 38.9433 58.5093 38.882C59.092 38.8053 59.6363 38.6903 60.1423 38.537C60.6483 38.3683 61.1237 38.1537 61.5683 37.893C62.013 37.617 62.4653 37.272 62.9253 36.858C63.1093 36.7047 63.3087 36.582 63.5233 36.49C63.738 36.3827 63.9603 36.329 64.1903 36.329ZM96.3292 36.329C96.5132 36.329 96.6972 36.3673 96.8812 36.444C97.0652 36.5053 97.2416 36.6203 97.4102 36.789L100.492 40.032C99.1429 41.7953 97.4486 43.1293 95.4092 44.034C93.3852 44.9233 90.9856 45.368 88.2102 45.368C85.6649 45.368 83.3802 44.9387 81.3562 44.08C79.3476 43.206 77.6379 42.01 76.2272 40.492C74.8319 38.9587 73.7586 37.1493 73.0072 35.064C72.2559 32.9633 71.8802 30.6863 71.8802 28.233C71.8802 25.7337 72.2866 23.4413 73.0992 21.356C73.9119 19.2553 75.0542 17.446 76.5262 15.928C77.9982 14.41 79.7616 13.2293 81.8162 12.386C83.8709 11.5427 86.1326 11.121 88.6012 11.121C89.8586 11.121 91.0392 11.236 92.1432 11.466C93.2626 11.6807 94.3052 11.9873 95.2712 12.386C96.2372 12.7693 97.1266 13.237 97.9392 13.789C98.7519 14.341 99.4726 14.939 100.101 15.583L97.4792 19.102C97.3106 19.3167 97.1112 19.516 96.8812 19.7C96.6512 19.8687 96.3292 19.953 95.9152 19.953C95.6392 19.953 95.3786 19.8917 95.1332 19.769C94.8879 19.6463 94.6272 19.5007 94.3512 19.332C94.0752 19.148 93.7686 18.9563 93.4312 18.757C93.1092 18.5423 92.7182 18.3507 92.2582 18.182C91.8136 17.998 91.2846 17.8447 90.6712 17.722C90.0732 17.5993 89.3679 17.538 88.5552 17.538C87.2672 17.538 86.0866 17.7757 85.0132 18.251C83.9552 18.7263 83.0352 19.424 82.2532 20.344C81.4866 21.2487 80.8886 22.368 80.4592 23.702C80.0452 25.0207 79.8382 26.531 79.8382 28.233C79.8382 29.9503 80.0682 31.476 80.5282 32.81C81.0036 34.144 81.6399 35.271 82.4372 36.191C83.2499 37.0957 84.1929 37.7857 85.2662 38.261C86.3396 38.7363 87.4896 38.974 88.7162 38.974C89.4216 38.974 90.0656 38.9433 90.6482 38.882C91.2309 38.8053 91.7752 38.6903 92.2812 38.537C92.7872 38.3683 93.2626 38.1537 93.7072 37.893C94.1519 37.617 94.6042 37.272 95.0642 36.858C95.2482 36.7047 95.4476 36.582 95.6622 36.49C95.8769 36.3827 96.0992 36.329 96.3292 36.329Z" fill="white"/>
<path d="M3.30758 59.6712C3.49433 59.6712 3.65858 59.6465 3.80033 59.597C3.94433 59.5475 4.0647 59.4789 4.16145 59.3911C4.26045 59.3011 4.3347 59.1942 4.3842 59.0705C4.4337 58.9467 4.45845 58.8106 4.45845 58.6621C4.45845 58.3539 4.36283 58.1131 4.17158 57.9399C3.98258 57.7666 3.69458 57.68 3.30758 57.68H2.53133V59.6712H3.30758ZM3.30758 57.1636C3.61358 57.1636 3.87908 57.1996 4.10408 57.2716C4.33133 57.3414 4.5192 57.4415 4.6677 57.572C4.8162 57.7025 4.92645 57.86 4.99845 58.0445C5.0727 58.229 5.10983 58.4349 5.10983 58.6621C5.10983 58.8871 5.07045 59.093 4.9917 59.2797C4.91295 59.4665 4.79708 59.6274 4.64408 59.7624C4.49333 59.8974 4.30545 60.0031 4.08045 60.0796C3.8577 60.1539 3.60008 60.191 3.30758 60.191H2.53133V62H1.87995V57.1636H3.30758ZM8.57058 58.5811V62H8.21283C8.12733 62 8.07333 61.9584 8.05083 61.8751L8.00358 61.5072C7.85508 61.6715 7.68858 61.8042 7.50408 61.9055C7.31958 62.0045 7.10808 62.054 6.86958 62.054C6.68283 62.054 6.51745 62.0236 6.37345 61.9629C6.2317 61.8999 6.11245 61.8121 6.0157 61.6996C5.91895 61.5871 5.84583 61.451 5.79633 61.2912C5.74908 61.1315 5.72545 60.9549 5.72545 60.7614V58.5811H6.3262V60.7614C6.3262 61.0201 6.3847 61.2204 6.5017 61.3621C6.62095 61.5039 6.80208 61.5747 7.04508 61.5747C7.22283 61.5747 7.3882 61.5331 7.5412 61.4499C7.69645 61.3644 7.83933 61.2474 7.96983 61.0989V58.5811H8.57058ZM10.0901 59.0772C10.1644 58.994 10.2431 58.9186 10.3264 58.8511C10.4096 58.7836 10.4974 58.7262 10.5896 58.679C10.6841 58.6295 10.7831 58.5924 10.8866 58.5676C10.9924 58.5406 11.106 58.5271 11.2275 58.5271C11.4142 58.5271 11.5785 58.5586 11.7202 58.6216C11.8642 58.6824 11.9835 58.7701 12.078 58.8849C12.1747 58.9974 12.2479 59.1335 12.2974 59.2932C12.3469 59.453 12.3716 59.6296 12.3716 59.8231V62H11.7675V59.8231C11.7675 59.5644 11.7079 59.3641 11.5886 59.2224C11.4716 59.0784 11.2927 59.0064 11.052 59.0064C10.8742 59.0064 10.7077 59.0491 10.5525 59.1346C10.3995 59.2201 10.2577 59.336 10.1272 59.4822V62H9.52312V58.5811H9.88424C9.96974 58.5811 10.0226 58.6227 10.0429 58.706L10.0901 59.0772ZM14.2905 62.054C14.0205 62.054 13.8124 61.9786 13.6661 61.8279C13.5221 61.6771 13.4501 61.46 13.4501 61.1765V59.084H13.0384C13.0024 59.084 12.972 59.0739 12.9473 59.0536C12.9225 59.0311 12.9101 58.9974 12.9101 58.9524V58.7127L13.4704 58.6419L13.6088 57.5855C13.6155 57.5517 13.6301 57.5247 13.6526 57.5045C13.6774 57.482 13.7089 57.4707 13.7471 57.4707H14.0509V58.6486H15.0398V59.084H14.0509V61.136C14.0509 61.28 14.0858 61.3869 14.1555 61.4566C14.2253 61.5264 14.3153 61.5612 14.4255 61.5612C14.4885 61.5612 14.5425 61.5534 14.5875 61.5376C14.6348 61.5196 14.6753 61.5005 14.709 61.4802C14.7428 61.46 14.7709 61.442 14.7934 61.4262C14.8181 61.4082 14.8395 61.3992 14.8575 61.3992C14.889 61.3992 14.9171 61.4184 14.9419 61.4566L15.1174 61.7435C15.0139 61.8402 14.889 61.9167 14.7428 61.973C14.5965 62.027 14.4458 62.054 14.2905 62.054ZM17.0814 58.5271C17.3312 58.5271 17.5562 58.5687 17.7564 58.652C17.9567 58.7352 18.1277 58.8534 18.2694 59.0064C18.4112 59.1594 18.5192 59.345 18.5934 59.5632C18.6699 59.7792 18.7082 60.0211 18.7082 60.2889C18.7082 60.5589 18.6699 60.8019 18.5934 61.0179C18.5192 61.2339 18.4112 61.4184 18.2694 61.5714C18.1277 61.7244 17.9567 61.8425 17.7564 61.9257C17.5562 62.0067 17.3312 62.0473 17.0814 62.0473C16.8294 62.0473 16.6022 62.0067 16.3997 61.9257C16.1994 61.8425 16.0284 61.7244 15.8867 61.5714C15.7449 61.4184 15.6358 61.2339 15.5593 61.0179C15.4851 60.8019 15.4479 60.5589 15.4479 60.2889C15.4479 60.0211 15.4851 59.7792 15.5593 59.5632C15.6358 59.345 15.7449 59.1594 15.8867 59.0064C16.0284 58.8534 16.1994 58.7352 16.3997 58.652C16.6022 58.5687 16.8294 58.5271 17.0814 58.5271ZM17.0814 61.5781C17.4189 61.5781 17.6709 61.4656 17.8374 61.2406C18.0039 61.0134 18.0872 60.6972 18.0872 60.2922C18.0872 59.885 18.0039 59.5677 17.8374 59.3405C17.6709 59.1132 17.4189 58.9996 17.0814 58.9996C16.9104 58.9996 16.7608 59.0289 16.6326 59.0874C16.5066 59.1459 16.4008 59.2302 16.3153 59.3405C16.2321 59.4507 16.1691 59.5869 16.1263 59.7489C16.0858 59.9086 16.0656 60.0897 16.0656 60.2922C16.0656 60.6972 16.1488 61.0134 16.3153 61.2406C16.4841 61.4656 16.7394 61.5781 17.0814 61.5781ZM23.4247 59.3945C23.3122 59.2437 23.1907 59.1391 23.0602 59.0806C22.9297 59.0199 22.7834 58.9895 22.6214 58.9895C22.3042 58.9895 22.0601 59.1031 21.8891 59.3304C21.7181 59.5576 21.6326 59.8816 21.6326 60.3024C21.6326 60.5251 21.6517 60.7164 21.6899 60.8761C21.7282 61.0336 21.7844 61.1641 21.8587 61.2676C21.9329 61.3689 22.0241 61.4431 22.1321 61.4904C22.2401 61.5376 22.3627 61.5612 22.4999 61.5612C22.6979 61.5612 22.8701 61.5162 23.0163 61.4262C23.1648 61.3362 23.3009 61.2091 23.4247 61.0449V59.3945ZM24.0254 57.0286V62H23.6677C23.5822 62 23.5282 61.9584 23.5057 61.8751L23.4517 61.46C23.3054 61.6355 23.1389 61.7772 22.9522 61.8852C22.7654 61.9932 22.5494 62.0473 22.3042 62.0473C22.1084 62.0473 21.9307 62.0101 21.7709 61.9359C21.6112 61.8594 21.4751 61.748 21.3626 61.6017C21.2501 61.4555 21.1634 61.2732 21.1027 61.055C21.0419 60.8367 21.0116 60.5859 21.0116 60.3024C21.0116 60.0504 21.0453 59.8164 21.1128 59.6004C21.1803 59.3821 21.2771 59.1931 21.4031 59.0334C21.5291 58.8736 21.6832 58.7487 21.8654 58.6587C22.0499 58.5665 22.2569 58.5204 22.4864 58.5204C22.6957 58.5204 22.8746 58.5564 23.0231 58.6284C23.1738 58.6981 23.3077 58.796 23.4247 58.922V57.0286H24.0254ZM27.2625 59.9176C27.2625 59.7781 27.2423 59.651 27.2018 59.5362C27.1635 59.4192 27.1062 59.3191 27.0297 59.2359C26.9554 59.1504 26.8643 59.0851 26.7563 59.0401C26.6483 58.9929 26.5257 58.9692 26.3884 58.9692C26.1004 58.9692 25.872 59.0536 25.7033 59.2224C25.5368 59.3889 25.4333 59.6206 25.3928 59.9176H27.2625ZM27.7485 61.5207C27.6743 61.6107 27.5854 61.6895 27.4819 61.757C27.3784 61.8222 27.267 61.8762 27.1478 61.919C27.0308 61.9617 26.9093 61.9932 26.7833 62.0135C26.6573 62.036 26.5324 62.0473 26.4087 62.0473C26.1724 62.0473 25.9542 62.0079 25.7539 61.9291C25.5559 61.8481 25.3838 61.7311 25.2375 61.5781C25.0935 61.4229 24.981 61.2316 24.9 61.0044C24.819 60.7771 24.7785 60.5161 24.7785 60.2214C24.7785 59.9829 24.8145 59.7601 24.8865 59.5531C24.9608 59.3461 25.0665 59.1672 25.2038 59.0165C25.341 58.8635 25.5087 58.7442 25.7067 58.6587C25.9047 58.571 26.1274 58.5271 26.3749 58.5271C26.5797 58.5271 26.7687 58.562 26.9419 58.6317C27.1174 58.6992 27.2682 58.7982 27.3942 58.9287C27.5224 59.057 27.6225 59.2167 27.6945 59.408C27.7665 59.597 27.8025 59.813 27.8025 60.056C27.8025 60.1505 27.7924 60.2135 27.7722 60.245C27.7519 60.2765 27.7137 60.2922 27.6574 60.2922H25.3725C25.3793 60.5082 25.4085 60.6961 25.4603 60.8559C25.5143 61.0156 25.5885 61.1495 25.683 61.2575C25.7775 61.3632 25.89 61.4431 26.0205 61.4971C26.151 61.5489 26.2973 61.5747 26.4593 61.5747C26.61 61.5747 26.7394 61.5579 26.8474 61.5241C26.9577 61.4881 27.0522 61.4499 27.1309 61.4094C27.2097 61.3689 27.2749 61.3317 27.3267 61.298C27.3807 61.262 27.4268 61.244 27.465 61.244C27.5145 61.244 27.5528 61.2631 27.5798 61.3014L27.7485 61.5207ZM33.8045 61.001C33.8405 61.001 33.872 61.0156 33.899 61.0449L34.1589 61.325C33.9609 61.5545 33.7201 61.7334 33.4366 61.8616C33.1554 61.9899 32.8145 62.054 32.414 62.054C32.0675 62.054 31.7525 61.9944 31.469 61.8751C31.1855 61.7536 30.9436 61.5849 30.7434 61.3689C30.5431 61.1506 30.3879 60.8896 30.2776 60.5859C30.1674 60.2821 30.1123 59.948 30.1123 59.5835C30.1123 59.219 30.1696 58.8849 30.2844 58.5811C30.3991 58.2774 30.56 58.0164 30.767 57.7981C30.9763 57.5799 31.226 57.4111 31.5163 57.2919C31.8065 57.1704 32.1271 57.1096 32.4781 57.1096C32.8224 57.1096 33.1261 57.1647 33.3894 57.275C33.6526 57.3852 33.8844 57.5349 34.0846 57.7239L33.8686 58.0242C33.8551 58.0467 33.8371 58.0659 33.8146 58.0816C33.7944 58.0951 33.7663 58.1019 33.7303 58.1019C33.6898 58.1019 33.6403 58.0805 33.5818 58.0377C33.5233 57.9927 33.4468 57.9432 33.3523 57.8892C33.2578 57.8352 33.1396 57.7869 32.9979 57.7441C32.8561 57.6991 32.6818 57.6766 32.4748 57.6766C32.225 57.6766 31.9966 57.7205 31.7896 57.8082C31.5826 57.8937 31.4038 58.0186 31.253 58.1829C31.1045 58.3471 30.9886 58.5474 30.9054 58.7836C30.8221 59.0199 30.7805 59.2865 30.7805 59.5835C30.7805 59.885 30.8233 60.1539 30.9088 60.3901C30.9965 60.6264 31.1146 60.8266 31.2631 60.9909C31.4139 61.1529 31.5905 61.2766 31.793 61.3621C31.9978 61.4476 32.2183 61.4904 32.4545 61.4904C32.5985 61.4904 32.7279 61.4825 32.8426 61.4667C32.9596 61.4487 33.0665 61.4217 33.1633 61.3857C33.2623 61.3497 33.3534 61.3047 33.4366 61.2507C33.5221 61.1945 33.6065 61.1281 33.6898 61.0516C33.728 61.0179 33.7663 61.001 33.8045 61.001ZM36.1515 58.5271C36.4012 58.5271 36.6262 58.5687 36.8265 58.652C37.0267 58.7352 37.1977 58.8534 37.3395 59.0064C37.4812 59.1594 37.5892 59.345 37.6635 59.5632C37.74 59.7792 37.7782 60.0211 37.7782 60.2889C37.7782 60.5589 37.74 60.8019 37.6635 61.0179C37.5892 61.2339 37.4812 61.4184 37.3395 61.5714C37.1977 61.7244 37.0267 61.8425 36.8265 61.9257C36.6262 62.0067 36.4012 62.0473 36.1515 62.0473C35.8995 62.0473 35.6722 62.0067 35.4697 61.9257C35.2695 61.8425 35.0985 61.7244 34.9567 61.5714C34.815 61.4184 34.7059 61.2339 34.6294 61.0179C34.5551 60.8019 34.518 60.5589 34.518 60.2889C34.518 60.0211 34.5551 59.7792 34.6294 59.5632C34.7059 59.345 34.815 59.1594 34.9567 59.0064C35.0985 58.8534 35.2695 58.7352 35.4697 58.652C35.6722 58.5687 35.8995 58.5271 36.1515 58.5271ZM36.1515 61.5781C36.489 61.5781 36.741 61.4656 36.9075 61.2406C37.074 61.0134 37.1572 60.6972 37.1572 60.2922C37.1572 59.885 37.074 59.5677 36.9075 59.3405C36.741 59.1132 36.489 58.9996 36.1515 58.9996C35.9805 58.9996 35.8309 59.0289 35.7026 59.0874C35.5766 59.1459 35.4709 59.2302 35.3854 59.3405C35.3021 59.4507 35.2391 59.5869 35.1964 59.7489C35.1559 59.9086 35.1356 60.0897 35.1356 60.2922C35.1356 60.6972 35.2189 61.0134 35.3854 61.2406C35.5541 61.4656 35.8095 61.5781 36.1515 61.5781ZM39.1072 59.0772C39.1815 58.994 39.2602 58.9186 39.3435 58.8511C39.4267 58.7836 39.5145 58.7262 39.6067 58.679C39.7012 58.6295 39.8002 58.5924 39.9037 58.5676C40.0095 58.5406 40.1231 58.5271 40.2446 58.5271C40.4313 58.5271 40.5956 58.5586 40.7373 58.6216C40.8813 58.6824 41.0006 58.7701 41.0951 58.8849C41.1918 58.9974 41.265 59.1335 41.3145 59.2932C41.364 59.453 41.3887 59.6296 41.3887 59.8231V62H40.7846V59.8231C40.7846 59.5644 40.725 59.3641 40.6057 59.2224C40.4887 59.0784 40.3098 59.0064 40.0691 59.0064C39.8913 59.0064 39.7248 59.0491 39.5696 59.1346C39.4166 59.2201 39.2748 59.336 39.1443 59.4822V62H38.5402V58.5811H38.9013C38.9868 58.5811 39.0397 58.6227 39.06 58.706L39.1072 59.0772ZM43.3076 62.054C43.0376 62.054 42.8295 61.9786 42.6832 61.8279C42.5392 61.6771 42.4672 61.46 42.4672 61.1765V59.084H42.0555C42.0195 59.084 41.9891 59.0739 41.9644 59.0536C41.9396 59.0311 41.9272 58.9974 41.9272 58.9524V58.7127L42.4875 58.6419L42.6259 57.5855C42.6326 57.5517 42.6472 57.5247 42.6697 57.5045C42.6945 57.482 42.726 57.4707 42.7642 57.4707H43.068V58.6486H44.0569V59.084H43.068V61.136C43.068 61.28 43.1029 61.3869 43.1726 61.4566C43.2424 61.5264 43.3324 61.5612 43.4426 61.5612C43.5056 61.5612 43.5596 61.5534 43.6046 61.5376C43.6519 61.5196 43.6924 61.5005 43.7261 61.4802C43.7599 61.46 43.788 61.442 43.8105 61.4262C43.8352 61.4082 43.8566 61.3992 43.8746 61.3992C43.9061 61.3992 43.9342 61.4184 43.959 61.4566L44.1345 61.7435C44.031 61.8402 43.9061 61.9167 43.7599 61.973C43.6136 62.027 43.4629 62.054 43.3076 62.054ZM45.2475 59.2662C45.3555 59.0322 45.4883 58.85 45.6458 58.7195C45.8033 58.5867 45.9957 58.5204 46.2229 58.5204C46.2949 58.5204 46.3635 58.5282 46.4288 58.544C46.4963 58.5597 46.5559 58.5845 46.6077 58.6182L46.5638 59.0671C46.5503 59.1234 46.5165 59.1515 46.4625 59.1515C46.431 59.1515 46.3849 59.1447 46.3242 59.1312C46.2634 59.1177 46.1948 59.111 46.1183 59.111C46.0103 59.111 45.9135 59.1267 45.828 59.1582C45.7448 59.1897 45.6694 59.237 45.6019 59.3C45.5367 59.3607 45.477 59.4372 45.423 59.5295C45.3713 59.6195 45.324 59.723 45.2813 59.84V62H44.6772V58.5811H45.0214C45.0867 58.5811 45.1317 58.5935 45.1564 58.6182C45.1812 58.643 45.198 58.6857 45.207 58.7465L45.2475 59.2662ZM48.4386 58.5271C48.6884 58.5271 48.9134 58.5687 49.1136 58.652C49.3139 58.7352 49.4849 58.8534 49.6266 59.0064C49.7684 59.1594 49.8764 59.345 49.9506 59.5632C50.0271 59.7792 50.0654 60.0211 50.0654 60.2889C50.0654 60.5589 50.0271 60.8019 49.9506 61.0179C49.8764 61.2339 49.7684 61.4184 49.6266 61.5714C49.4849 61.7244 49.3139 61.8425 49.1136 61.9257C48.9134 62.0067 48.6884 62.0473 48.4386 62.0473C48.1866 62.0473 47.9594 62.0067 47.7569 61.9257C47.5566 61.8425 47.3856 61.7244 47.2439 61.5714C47.1021 61.4184 46.993 61.2339 46.9165 61.0179C46.8422 60.8019 46.8051 60.5589 46.8051 60.2889C46.8051 60.0211 46.8422 59.7792 46.9165 59.5632C46.993 59.345 47.1021 59.1594 47.2439 59.0064C47.3856 58.8534 47.5566 58.7352 47.7569 58.652C47.9594 58.5687 48.1866 58.5271 48.4386 58.5271ZM48.4386 61.5781C48.7761 61.5781 49.0281 61.4656 49.1946 61.2406C49.3611 61.0134 49.4444 60.6972 49.4444 60.2922C49.4444 59.885 49.3611 59.5677 49.1946 59.3405C49.0281 59.1132 48.7761 58.9996 48.4386 58.9996C48.2676 58.9996 48.118 59.0289 47.9897 59.0874C47.8637 59.1459 47.758 59.2302 47.6725 59.3405C47.5892 59.4507 47.5262 59.5869 47.4835 59.7489C47.443 59.9086 47.4227 60.0897 47.4227 60.2922C47.4227 60.6972 47.506 61.0134 47.6725 61.2406C47.8412 61.4656 48.0966 61.5781 48.4386 61.5781ZM51.4483 57.0286V62H50.8476V57.0286H51.4483ZM56.3771 59.3945C56.2646 59.2437 56.1431 59.1391 56.0126 59.0806C55.8821 59.0199 55.7358 58.9895 55.5738 58.9895C55.2566 58.9895 55.0125 59.1031 54.8415 59.3304C54.6705 59.5576 54.585 59.8816 54.585 60.3024C54.585 60.5251 54.6041 60.7164 54.6423 60.8761C54.6806 61.0336 54.7368 61.1641 54.8111 61.2676C54.8853 61.3689 54.9765 61.4431 55.0845 61.4904C55.1925 61.5376 55.3151 61.5612 55.4523 61.5612C55.6503 61.5612 55.8225 61.5162 55.9687 61.4262C56.1172 61.3362 56.2533 61.2091 56.3771 61.0449V59.3945ZM56.9778 57.0286V62H56.6201C56.5346 62 56.4806 61.9584 56.4581 61.8751L56.4041 61.46C56.2578 61.6355 56.0913 61.7772 55.9046 61.8852C55.7178 61.9932 55.5018 62.0473 55.2566 62.0473C55.0608 62.0473 54.8831 62.0101 54.7233 61.9359C54.5636 61.8594 54.4275 61.748 54.315 61.6017C54.2025 61.4555 54.1158 61.2732 54.0551 61.055C53.9943 60.8367 53.964 60.5859 53.964 60.3024C53.964 60.0504 53.9977 59.8164 54.0652 59.6004C54.1327 59.3821 54.2295 59.1931 54.3555 59.0334C54.4815 58.8736 54.6356 58.7487 54.8178 58.6587C55.0023 58.5665 55.2093 58.5204 55.4388 58.5204C55.6481 58.5204 55.827 58.5564 55.9755 58.6284C56.1262 58.6981 56.2601 58.796 56.3771 58.922V57.0286H56.9778ZM60.2149 59.9176C60.2149 59.7781 60.1947 59.651 60.1542 59.5362C60.1159 59.4192 60.0586 59.3191 59.9821 59.2359C59.9078 59.1504 59.8167 59.0851 59.7087 59.0401C59.6007 58.9929 59.4781 58.9692 59.3408 58.9692C59.0528 58.9692 58.8244 59.0536 58.6557 59.2224C58.4892 59.3889 58.3857 59.6206 58.3452 59.9176H60.2149ZM60.7009 61.5207C60.6267 61.6107 60.5378 61.6895 60.4343 61.757C60.3308 61.8222 60.2194 61.8762 60.1002 61.919C59.9832 61.9617 59.8617 61.9932 59.7357 62.0135C59.6097 62.036 59.4848 62.0473 59.3611 62.0473C59.1248 62.0473 58.9066 62.0079 58.7063 61.9291C58.5083 61.8481 58.3362 61.7311 58.1899 61.5781C58.0459 61.4229 57.9334 61.2316 57.8524 61.0044C57.7714 60.7771 57.7309 60.5161 57.7309 60.2214C57.7309 59.9829 57.7669 59.7601 57.8389 59.5531C57.9132 59.3461 58.0189 59.1672 58.1562 59.0165C58.2934 58.8635 58.4611 58.7442 58.6591 58.6587C58.8571 58.571 59.0798 58.5271 59.3273 58.5271C59.5321 58.5271 59.7211 58.562 59.8943 58.6317C60.0698 58.6992 60.2206 58.7982 60.3466 58.9287C60.4748 59.057 60.5749 59.2167 60.6469 59.408C60.7189 59.597 60.7549 59.813 60.7549 60.056C60.7549 60.1505 60.7448 60.2135 60.7246 60.245C60.7043 60.2765 60.6661 60.2922 60.6098 60.2922H58.3249C58.3317 60.5082 58.3609 60.6961 58.4127 60.8559C58.4667 61.0156 58.5409 61.1495 58.6354 61.2575C58.7299 61.3632 58.8424 61.4431 58.9729 61.4971C59.1034 61.5489 59.2497 61.5747 59.4117 61.5747C59.5624 61.5747 59.6918 61.5579 59.7998 61.5241C59.9101 61.4881 60.0046 61.4499 60.0833 61.4094C60.1621 61.3689 60.2273 61.3317 60.2791 61.298C60.3331 61.262 60.3792 61.244 60.4174 61.244C60.4669 61.244 60.5052 61.2631 60.5322 61.3014L60.7009 61.5207ZM66.7569 61.001C66.7929 61.001 66.8244 61.0156 66.8514 61.0449L67.1113 61.325C66.9133 61.5545 66.6725 61.7334 66.389 61.8616C66.1078 61.9899 65.7669 62.054 65.3664 62.054C65.0199 62.054 64.7049 61.9944 64.4214 61.8751C64.1379 61.7536 63.896 61.5849 63.6958 61.3689C63.4955 61.1506 63.3403 60.8896 63.23 60.5859C63.1198 60.2821 63.0646 59.948 63.0646 59.5835C63.0646 59.219 63.122 58.8849 63.2368 58.5811C63.3515 58.2774 63.5124 58.0164 63.7194 57.7981C63.9286 57.5799 64.1784 57.4111 64.4686 57.2919C64.7589 57.1704 65.0795 57.1096 65.4305 57.1096C65.7748 57.1096 66.0785 57.1647 66.3418 57.275C66.605 57.3852 66.8368 57.5349 67.037 57.7239L66.821 58.0242C66.8075 58.0467 66.7895 58.0659 66.767 58.0816C66.7468 58.0951 66.7186 58.1019 66.6826 58.1019C66.6421 58.1019 66.5926 58.0805 66.5341 58.0377C66.4756 57.9927 66.3991 57.9432 66.3046 57.8892C66.2101 57.8352 66.092 57.7869 65.9503 57.7441C65.8085 57.6991 65.6341 57.6766 65.4271 57.6766C65.1774 57.6766 64.949 57.7205 64.742 57.8082C64.535 57.8937 64.3561 58.0186 64.2054 58.1829C64.0569 58.3471 63.941 58.5474 63.8578 58.7836C63.7745 59.0199 63.7329 59.2865 63.7329 59.5835C63.7329 59.885 63.7756 60.1539 63.8611 60.3901C63.9489 60.6264 64.067 60.8266 64.2155 60.9909C64.3663 61.1529 64.5429 61.2766 64.7454 61.3621C64.9501 61.4476 65.1706 61.4904 65.4069 61.4904C65.5509 61.4904 65.6803 61.4825 65.795 61.4667C65.912 61.4487 66.0189 61.4217 66.1156 61.3857C66.2146 61.3497 66.3058 61.3047 66.389 61.2507C66.4745 61.1945 66.5589 61.1281 66.6421 61.0516C66.6804 61.0179 66.7186 61.001 66.7569 61.001ZM69.951 59.9176C69.951 59.7781 69.9308 59.651 69.8903 59.5362C69.852 59.4192 69.7946 59.3191 69.7181 59.2359C69.6439 59.1504 69.5528 59.0851 69.4448 59.0401C69.3368 58.9929 69.2141 58.9692 69.0769 58.9692C68.7889 58.9692 68.5605 59.0536 68.3918 59.2224C68.2253 59.3889 68.1218 59.6206 68.0813 59.9176H69.951ZM70.437 61.5207C70.3628 61.6107 70.2739 61.6895 70.1704 61.757C70.0669 61.8222 69.9555 61.8762 69.8363 61.919C69.7193 61.9617 69.5978 61.9932 69.4718 62.0135C69.3458 62.036 69.2209 62.0473 69.0971 62.0473C68.8609 62.0473 68.6426 62.0079 68.4424 61.9291C68.2444 61.8481 68.0723 61.7311 67.926 61.5781C67.782 61.4229 67.6695 61.2316 67.5885 61.0044C67.5075 60.7771 67.467 60.5161 67.467 60.2214C67.467 59.9829 67.503 59.7601 67.575 59.5531C67.6493 59.3461 67.755 59.1672 67.8923 59.0165C68.0295 58.8635 68.1971 58.7442 68.3951 58.6587C68.5931 58.571 68.8159 58.5271 69.0634 58.5271C69.2681 58.5271 69.4571 58.562 69.6304 58.6317C69.8059 58.6992 69.9566 58.7982 70.0826 58.9287C70.2109 59.057 70.311 59.2167 70.383 59.408C70.455 59.597 70.491 59.813 70.491 60.056C70.491 60.1505 70.4809 60.2135 70.4606 60.245C70.4404 60.2765 70.4021 60.2922 70.3459 60.2922H68.061C68.0678 60.5082 68.097 60.6961 68.1488 60.8559C68.2028 61.0156 68.277 61.1495 68.3715 61.2575C68.466 61.3632 68.5785 61.4431 68.709 61.4971C68.8395 61.5489 68.9858 61.5747 69.1478 61.5747C69.2985 61.5747 69.4279 61.5579 69.5359 61.5241C69.6461 61.4881 69.7406 61.4499 69.8194 61.4094C69.8981 61.3689 69.9634 61.3317 70.0151 61.298C70.0691 61.262 70.1153 61.244 70.1535 61.244C70.203 61.244 70.2413 61.2631 70.2683 61.3014L70.437 61.5207ZM71.7993 59.2662C71.9073 59.0322 72.0401 58.85 72.1976 58.7195C72.3551 58.5867 72.5474 58.5204 72.7747 58.5204C72.8467 58.5204 72.9153 58.5282 72.9806 58.544C73.0481 58.5597 73.1077 58.5845 73.1594 58.6182L73.1156 59.0671C73.1021 59.1234 73.0683 59.1515 73.0143 59.1515C72.9828 59.1515 72.9367 59.1447 72.8759 59.1312C72.8152 59.1177 72.7466 59.111 72.6701 59.111C72.5621 59.111 72.4653 59.1267 72.3798 59.1582C72.2966 59.1897 72.2212 59.237 72.1537 59.3C72.0884 59.3607 72.0288 59.4372 71.9748 59.5295C71.9231 59.6195 71.8758 59.723 71.8331 59.84V62H71.2289V58.5811H71.5732C71.6384 58.5811 71.6834 58.5935 71.7082 58.6182C71.7329 58.643 71.7498 58.6857 71.7588 58.7465L71.7993 59.2662ZM76.8602 62H76.2594V59.084H74.4977V61.136C74.4977 61.28 74.5325 61.3869 74.6023 61.4566C74.672 61.5264 74.762 61.5612 74.8723 61.5612C74.9353 61.5612 74.9893 61.5534 75.0343 61.5376C75.0815 61.5196 75.122 61.5005 75.1558 61.4802C75.1895 61.46 75.2177 61.442 75.2402 61.4262C75.2649 61.4082 75.2863 61.3992 75.3043 61.3992C75.3358 61.3992 75.3639 61.4184 75.3887 61.4566L75.5642 61.7435C75.4607 61.8402 75.3358 61.9167 75.1895 61.973C75.0433 62.027 74.8925 62.054 74.7373 62.054C74.4673 62.054 74.2592 61.9786 74.1129 61.8279C73.9689 61.6771 73.8969 61.46 73.8969 61.1765V59.084H73.4852C73.4492 59.084 73.4188 59.0739 73.394 59.0536C73.3693 59.0311 73.3569 58.9974 73.3569 58.9524V58.7127L73.9172 58.6385L74.0555 57.5855C74.0623 57.5517 74.0769 57.5247 74.0994 57.5045C74.1242 57.482 74.1557 57.4707 74.1939 57.4707H74.4977V58.6486H76.8602V62ZM77.0087 57.4842C77.0087 57.5427 76.9963 57.5979 76.9715 57.6496C76.949 57.6991 76.9175 57.743 76.877 57.7812C76.8388 57.8195 76.7938 57.8499 76.742 57.8724C76.6903 57.8949 76.6352 57.9061 76.5767 57.9061C76.5182 57.9061 76.463 57.8949 76.4113 57.8724C76.3618 57.8499 76.3179 57.8195 76.2797 57.7812C76.2414 57.743 76.211 57.6991 76.1885 57.6496C76.166 57.5979 76.1548 57.5427 76.1548 57.4842C76.1548 57.4257 76.166 57.3706 76.1885 57.3189C76.211 57.2649 76.2414 57.2187 76.2797 57.1805C76.3179 57.14 76.3618 57.1085 76.4113 57.086C76.463 57.0635 76.5182 57.0522 76.5767 57.0522C76.6352 57.0522 76.6903 57.0635 76.742 57.086C76.7938 57.1085 76.8388 57.14 76.877 57.1805C76.9175 57.2187 76.949 57.2649 76.9715 57.3189C76.9963 57.3706 77.0087 57.4257 77.0087 57.4842ZM78.0766 62V59.0941L77.6986 59.0502C77.6491 59.039 77.6097 59.0221 77.5805 58.9996C77.5512 58.9749 77.5366 58.94 77.5366 58.895V58.6486H78.0766V58.4596C78.0766 58.2504 78.1092 58.0591 78.1745 57.8859C78.2397 57.7104 78.3376 57.5596 78.4681 57.4336C78.5986 57.3076 78.7606 57.2097 78.9541 57.14C79.1498 57.0702 79.376 57.0354 79.6325 57.0354C79.718 57.0354 79.8057 57.041 79.8957 57.0522C79.9857 57.0635 80.0633 57.0804 80.1286 57.1029L80.105 57.4167C80.1027 57.4392 80.0937 57.455 80.078 57.464C80.0645 57.473 80.0453 57.4786 80.0206 57.4809C79.9958 57.4831 79.9643 57.4842 79.9261 57.4842C79.8901 57.482 79.8485 57.4809 79.8012 57.4809C79.4007 57.4809 79.1105 57.5641 78.9305 57.7306C78.7505 57.8949 78.6605 58.1435 78.6605 58.4765V58.6486H80.726V62H80.1218V59.084H78.6773V62H78.0766ZM84.0893 59.1886C84.0713 59.2134 84.0533 59.2325 84.0353 59.246C84.0173 59.2595 83.9925 59.2662 83.961 59.2662C83.9273 59.2662 83.8901 59.2527 83.8496 59.2257C83.8091 59.1965 83.7585 59.165 83.6978 59.1312C83.6393 59.0975 83.5661 59.0671 83.4784 59.0401C83.3929 59.0109 83.2871 58.9962 83.1611 58.9962C82.9924 58.9962 82.8439 59.0266 82.7156 59.0874C82.5874 59.1459 82.4794 59.2314 82.3916 59.3439C82.3061 59.4564 82.2409 59.5925 82.1959 59.7522C82.1531 59.912 82.1318 60.0909 82.1318 60.2889C82.1318 60.4959 82.1554 60.6804 82.2026 60.8424C82.2499 61.0021 82.3163 61.1371 82.4018 61.2474C82.4895 61.3554 82.5941 61.4386 82.7156 61.4971C82.8394 61.5534 82.9778 61.5815 83.1308 61.5815C83.277 61.5815 83.3974 61.5646 83.4919 61.5309C83.5864 61.4949 83.664 61.4555 83.7248 61.4127C83.7878 61.37 83.8395 61.3317 83.88 61.298C83.9228 61.262 83.9644 61.244 84.0049 61.244C84.0544 61.244 84.0926 61.2631 84.1196 61.3014L84.2884 61.5207C84.2141 61.613 84.1298 61.6917 84.0353 61.757C83.9408 61.8222 83.8384 61.8774 83.7281 61.9224C83.6201 61.9651 83.5065 61.9966 83.3873 62.0169C83.268 62.0371 83.1465 62.0473 83.0228 62.0473C82.809 62.0473 82.6099 62.0079 82.4254 61.9291C82.2431 61.8504 82.0845 61.7367 81.9495 61.5882C81.8145 61.4375 81.7088 61.253 81.6323 61.0347C81.5558 60.8165 81.5175 60.5679 81.5175 60.2889C81.5175 60.0346 81.5524 59.7995 81.6221 59.5835C81.6941 59.3675 81.7976 59.1819 81.9326 59.0266C82.0699 58.8691 82.2375 58.7465 82.4355 58.6587C82.6358 58.571 82.8653 58.5271 83.124 58.5271C83.3648 58.5271 83.5763 58.5665 83.7585 58.6452C83.943 58.7217 84.1061 58.8309 84.2479 58.9726L84.0893 59.1886ZM86.7861 60.461C86.5094 60.47 86.2731 60.4925 86.0774 60.5285C85.8839 60.5622 85.7253 60.6072 85.6015 60.6635C85.48 60.7197 85.3911 60.7861 85.3349 60.8626C85.2809 60.9391 85.2539 61.0246 85.2539 61.1191C85.2539 61.2091 85.2685 61.2867 85.2978 61.352C85.327 61.4172 85.3664 61.4712 85.4159 61.514C85.4676 61.5545 85.5273 61.5849 85.5948 61.6051C85.6645 61.6231 85.7388 61.6321 85.8175 61.6321C85.9233 61.6321 86.02 61.622 86.1078 61.6017C86.1955 61.5792 86.2776 61.5477 86.3541 61.5072C86.4329 61.4667 86.5071 61.4184 86.5769 61.3621C86.6489 61.3059 86.7186 61.2417 86.7861 61.1697V60.461ZM84.8455 59.0637C85.0345 58.8815 85.2381 58.7454 85.4564 58.6554C85.6746 58.5654 85.9165 58.5204 86.182 58.5204C86.3733 58.5204 86.5431 58.5519 86.6916 58.6149C86.8401 58.6779 86.965 58.7656 87.0663 58.8781C87.1675 58.9906 87.244 59.1267 87.2958 59.2865C87.3475 59.4462 87.3734 59.6217 87.3734 59.813V62H87.1068C87.0483 62 87.0033 61.991 86.9718 61.973C86.9403 61.9527 86.9155 61.9145 86.8975 61.8582L86.83 61.5342C86.74 61.6175 86.6523 61.6917 86.5668 61.757C86.4813 61.82 86.3913 61.874 86.2968 61.919C86.2023 61.9617 86.101 61.9944 85.993 62.0169C85.8873 62.0416 85.7691 62.054 85.6386 62.054C85.5059 62.054 85.381 62.036 85.264 62C85.147 61.9617 85.0446 61.9055 84.9569 61.8312C84.8714 61.757 84.8028 61.6636 84.751 61.5511C84.7015 61.4364 84.6768 61.3014 84.6768 61.1461C84.6768 61.0111 84.7139 60.8817 84.7881 60.758C84.8624 60.632 84.9828 60.5206 85.1493 60.4239C85.3158 60.3271 85.5329 60.2484 85.8006 60.1876C86.0684 60.1246 86.3969 60.0886 86.7861 60.0796V59.813C86.7861 59.5475 86.7288 59.3472 86.614 59.2122C86.4993 59.075 86.3316 59.0064 86.1111 59.0064C85.9626 59.0064 85.8378 59.0255 85.7365 59.0637C85.6375 59.0997 85.5509 59.1414 85.4766 59.1886C85.4046 59.2336 85.3416 59.2752 85.2876 59.3135C85.2359 59.3495 85.1841 59.3675 85.1324 59.3675C85.0919 59.3675 85.057 59.3574 85.0278 59.3371C84.9985 59.3146 84.9738 59.2876 84.9535 59.2561L84.8455 59.0637ZM90.6679 59.1886C90.6499 59.2134 90.6319 59.2325 90.6139 59.246C90.5959 59.2595 90.5711 59.2662 90.5396 59.2662C90.5059 59.2662 90.4687 59.2527 90.4282 59.2257C90.3877 59.1965 90.3371 59.165 90.2764 59.1312C90.2179 59.0975 90.1447 59.0671 90.057 59.0401C89.9715 59.0109 89.8657 58.9962 89.7397 58.9962C89.571 58.9962 89.4225 59.0266 89.2942 59.0874C89.166 59.1459 89.058 59.2314 88.9702 59.3439C88.8847 59.4564 88.8195 59.5925 88.7745 59.7522C88.7317 59.912 88.7104 60.0909 88.7104 60.2889C88.7104 60.4959 88.734 60.6804 88.7812 60.8424C88.8285 61.0021 88.8949 61.1371 88.9804 61.2474C89.0681 61.3554 89.1727 61.4386 89.2942 61.4971C89.418 61.5534 89.5564 61.5815 89.7094 61.5815C89.8556 61.5815 89.976 61.5646 90.0705 61.5309C90.165 61.4949 90.2426 61.4555 90.3034 61.4127C90.3664 61.37 90.4181 61.3317 90.4586 61.298C90.5014 61.262 90.543 61.244 90.5835 61.244C90.633 61.244 90.6712 61.2631 90.6982 61.3014L90.867 61.5207C90.7927 61.613 90.7084 61.6917 90.6139 61.757C90.5194 61.8222 90.417 61.8774 90.3067 61.9224C90.1987 61.9651 90.0851 61.9966 89.9659 62.0169C89.8466 62.0371 89.7251 62.0473 89.6014 62.0473C89.3876 62.0473 89.1885 62.0079 89.004 61.9291C88.8217 61.8504 88.6631 61.7367 88.5281 61.5882C88.3931 61.4375 88.2874 61.253 88.2109 61.0347C88.1344 60.8165 88.0961 60.5679 88.0961 60.2889C88.0961 60.0346 88.131 59.7995 88.2007 59.5835C88.2727 59.3675 88.3762 59.1819 88.5112 59.0266C88.6485 58.8691 88.8161 58.7465 89.0141 58.6587C89.2144 58.571 89.4439 58.5271 89.7026 58.5271C89.9434 58.5271 90.1549 58.5665 90.3371 58.6452C90.5216 58.7217 90.6847 58.8309 90.8265 58.9726L90.6679 59.1886ZM92.1464 58.5811V62H91.5456V58.5811H92.1464ZM92.2746 57.5079C92.2746 57.5664 92.2623 57.6215 92.2375 57.6732C92.215 57.7227 92.1835 57.7677 92.143 57.8082C92.1048 57.8465 92.0586 57.8769 92.0046 57.8994C91.9529 57.9219 91.8978 57.9331 91.8393 57.9331C91.7808 57.9331 91.7256 57.9219 91.6739 57.8994C91.6244 57.8769 91.5805 57.8465 91.5423 57.8082C91.504 57.7677 91.4736 57.7227 91.4511 57.6732C91.4286 57.6215 91.4174 57.5664 91.4174 57.5079C91.4174 57.4494 91.4286 57.3942 91.4511 57.3425C91.4736 57.2885 91.504 57.2424 91.5423 57.2041C91.5805 57.1636 91.6244 57.1321 91.6739 57.1096C91.7256 57.0871 91.7808 57.0759 91.8393 57.0759C91.8978 57.0759 91.9529 57.0871 92.0046 57.1096C92.0586 57.1321 92.1048 57.1636 92.143 57.2041C92.1835 57.2424 92.215 57.2885 92.2375 57.3425C92.2623 57.3942 92.2746 57.4494 92.2746 57.5079ZM94.5746 58.5271C94.8243 58.5271 95.0493 58.5687 95.2496 58.652C95.4498 58.7352 95.6208 58.8534 95.7626 59.0064C95.9043 59.1594 96.0123 59.345 96.0866 59.5632C96.1631 59.7792 96.2013 60.0211 96.2013 60.2889C96.2013 60.5589 96.1631 60.8019 96.0866 61.0179C96.0123 61.2339 95.9043 61.4184 95.7626 61.5714C95.6208 61.7244 95.4498 61.8425 95.2496 61.9257C95.0493 62.0067 94.8243 62.0473 94.5746 62.0473C94.3226 62.0473 94.0953 62.0067 93.8928 61.9257C93.6926 61.8425 93.5216 61.7244 93.3798 61.5714C93.2381 61.4184 93.129 61.2339 93.0525 61.0179C92.9782 60.8019 92.9411 60.5589 92.9411 60.2889C92.9411 60.0211 92.9782 59.7792 93.0525 59.5632C93.129 59.345 93.2381 59.1594 93.3798 59.0064C93.5216 58.8534 93.6926 58.7352 93.8928 58.652C94.0953 58.5687 94.3226 58.5271 94.5746 58.5271ZM94.5746 61.5781C94.9121 61.5781 95.1641 61.4656 95.3306 61.2406C95.4971 61.0134 95.5803 60.6972 95.5803 60.2922C95.5803 59.885 95.4971 59.5677 95.3306 59.3405C95.1641 59.1132 94.9121 58.9996 94.5746 58.9996C94.4036 58.9996 94.254 59.0289 94.1257 59.0874C93.9997 59.1459 93.894 59.2302 93.8085 59.3405C93.7252 59.4507 93.6622 59.5869 93.6195 59.7489C93.579 59.9086 93.5587 60.0897 93.5587 60.2922C93.5587 60.6972 93.642 61.0134 93.8085 61.2406C93.9772 61.4656 94.2326 61.5781 94.5746 61.5781ZM97.5303 59.0772C97.6046 58.994 97.6833 58.9186 97.7666 58.8511C97.8498 58.7836 97.9376 58.7262 98.0298 58.679C98.1243 58.6295 98.2233 58.5924 98.3268 58.5676C98.4326 58.5406 98.5462 58.5271 98.6677 58.5271C98.8544 58.5271 99.0187 58.5586 99.1604 58.6216C99.3044 58.6824 99.4237 58.7701 99.5182 58.8849C99.6149 58.9974 99.6881 59.1335 99.7376 59.2932C99.7871 59.453 99.8118 59.6296 99.8118 59.8231V62H99.2077V59.8231C99.2077 59.5644 99.1481 59.3641 99.0288 59.2224C98.9118 59.0784 98.7329 59.0064 98.4922 59.0064C98.3144 59.0064 98.1479 59.0491 97.9927 59.1346C97.8397 59.2201 97.6979 59.336 97.5674 59.4822V62H96.9633V58.5811H97.3244C97.4099 58.5811 97.4628 58.6227 97.4831 58.706L97.5303 59.0772ZM103.015 59.9176C103.015 59.7781 102.995 59.651 102.955 59.5362C102.916 59.4192 102.859 59.3191 102.783 59.2359C102.708 59.1504 102.617 59.0851 102.509 59.0401C102.401 58.9929 102.279 58.9692 102.141 58.9692C101.853 58.9692 101.625 59.0536 101.456 59.2224C101.29 59.3889 101.186 59.6206 101.146 59.9176H103.015ZM103.501 61.5207C103.427 61.6107 103.338 61.6895 103.235 61.757C103.131 61.8222 103.02 61.8762 102.901 61.919C102.784 61.9617 102.662 61.9932 102.536 62.0135C102.41 62.036 102.285 62.0473 102.162 62.0473C101.925 62.0473 101.707 62.0079 101.507 61.9291C101.309 61.8481 101.137 61.7311 100.99 61.5781C100.846 61.4229 100.734 61.2316 100.653 61.0044C100.572 60.7771 100.531 60.5161 100.531 60.2214C100.531 59.9829 100.567 59.7601 100.639 59.5531C100.714 59.3461 100.819 59.1672 100.957 59.0165C101.094 58.8635 101.262 58.7442 101.46 58.6587C101.658 58.571 101.88 58.5271 102.128 58.5271C102.333 58.5271 102.522 58.562 102.695 58.6317C102.87 58.6992 103.021 58.7982 103.147 58.9287C103.275 59.057 103.375 59.2167 103.447 59.408C103.519 59.597 103.555 59.813 103.555 60.056C103.555 60.1505 103.545 60.2135 103.525 60.245C103.505 60.2765 103.467 60.2922 103.41 60.2922H101.125C101.132 60.5082 101.161 60.6961 101.213 60.8559C101.267 61.0156 101.341 61.1495 101.436 61.2575C101.53 61.3632 101.643 61.4431 101.773 61.4971C101.904 61.5489 102.05 61.5747 102.212 61.5747C102.363 61.5747 102.492 61.5579 102.6 61.5241C102.711 61.4881 102.805 61.4499 102.884 61.4094C102.963 61.3689 103.028 61.3317 103.08 61.298C103.134 61.262 103.18 61.244 103.218 61.244C103.267 61.244 103.306 61.2631 103.333 61.3014L103.501 61.5207ZM106.285 59.1447C106.258 59.1942 106.216 59.219 106.16 59.219C106.126 59.219 106.088 59.2066 106.045 59.1819C106.002 59.1571 105.949 59.1301 105.886 59.1009C105.826 59.0694 105.753 59.0412 105.667 59.0165C105.582 58.9895 105.48 58.976 105.363 58.976C105.262 58.976 105.171 58.9895 105.09 59.0165C105.009 59.0412 104.939 59.0761 104.881 59.1211C104.824 59.1661 104.781 59.219 104.749 59.2797C104.72 59.3382 104.705 59.4024 104.705 59.4721C104.705 59.5599 104.73 59.633 104.779 59.6915C104.831 59.75 104.899 59.8006 104.982 59.8434C105.065 59.8861 105.16 59.9244 105.265 59.9581C105.371 59.9896 105.479 60.0245 105.589 60.0627C105.702 60.0987 105.811 60.1392 105.917 60.1842C106.023 60.2292 106.117 60.2855 106.2 60.353C106.284 60.4205 106.35 60.5037 106.399 60.6027C106.451 60.6995 106.477 60.8165 106.477 60.9537C106.477 61.1112 106.449 61.2575 106.393 61.3925C106.336 61.5252 106.253 61.6411 106.143 61.7401C106.033 61.8369 105.898 61.9134 105.738 61.9696C105.578 62.0259 105.394 62.054 105.184 62.054C104.946 62.054 104.73 62.0158 104.536 61.9392C104.343 61.8605 104.179 61.7604 104.044 61.6389L104.185 61.4094C104.203 61.3801 104.225 61.3576 104.25 61.3419C104.274 61.3261 104.306 61.3182 104.344 61.3182C104.385 61.3182 104.427 61.334 104.472 61.3655C104.517 61.397 104.571 61.4319 104.634 61.4701C104.7 61.5084 104.778 61.5432 104.871 61.5747C104.963 61.6062 105.078 61.622 105.215 61.622C105.332 61.622 105.434 61.6074 105.522 61.5781C105.61 61.5466 105.683 61.505 105.741 61.4532C105.8 61.4015 105.843 61.3419 105.87 61.2744C105.899 61.2069 105.913 61.1349 105.913 61.0584C105.913 60.9639 105.888 60.8862 105.836 60.8255C105.786 60.7625 105.72 60.7096 105.637 60.6669C105.553 60.6219 105.458 60.5836 105.35 60.5521C105.244 60.5184 105.135 60.4835 105.022 60.4475C104.912 60.4115 104.803 60.371 104.695 60.326C104.589 60.2787 104.495 60.2202 104.412 60.1505C104.328 60.0807 104.261 59.9952 104.209 59.894C104.16 59.7905 104.135 59.6656 104.135 59.5194C104.135 59.3889 104.162 59.264 104.216 59.1447C104.27 59.0232 104.349 58.9175 104.452 58.8275C104.556 58.7352 104.683 58.6621 104.833 58.6081C104.984 58.5541 105.156 58.5271 105.35 58.5271C105.575 58.5271 105.776 58.5631 105.954 58.6351C106.134 58.7049 106.289 58.8016 106.42 58.9254L106.285 59.1447Z" fill="white" fill-opacity="0.9"/>
</svg>
