<svg width="92" height="35" viewBox="0 0 92 35" fill="none" xmlns="http://www.w3.org/2000/svg">
<path d="M12.4222 16.934C14.4462 16.934 15.9029 16.451 16.7922 15.485C17.6815 14.519 18.1262 13.1697 18.1262 11.437C18.1262 10.6703 18.0112 9.97267 17.7812 9.344C17.5512 8.71533 17.1985 8.17867 16.7232 7.734C16.2632 7.274 15.6729 6.92133 14.9522 6.676C14.2469 6.43066 13.4035 6.308 12.4222 6.308H8.37419V16.934H12.4222ZM12.4222 0.489C14.7835 0.489 16.8075 0.772666 18.4942 1.34C20.1962 1.892 21.5915 2.65867 22.6802 3.64C23.7842 4.62133 24.5969 5.779 25.1182 7.113C25.6395 8.447 25.9002 9.88833 25.9002 11.437C25.9002 13.1083 25.6319 14.6417 25.0952 16.037C24.5585 17.4323 23.7382 18.6283 22.6342 19.625C21.5302 20.6217 20.1272 21.4037 18.4252 21.971C16.7385 22.523 14.7375 22.799 12.4222 22.799H8.37419V34H0.600189V0.489H12.4222ZM55.1903 25.329C55.3743 25.329 55.5583 25.3673 55.7423 25.444C55.9263 25.5053 56.1027 25.6203 56.2713 25.789L59.3533 29.032C58.004 30.7953 56.3097 32.1293 54.2703 33.034C52.2463 33.9233 49.8467 34.368 47.0713 34.368C44.526 34.368 42.2413 33.9387 40.2173 33.08C38.2087 32.206 36.499 31.01 35.0883 29.492C33.693 27.9587 32.6197 26.1493 31.8683 24.064C31.117 21.9633 30.7413 19.6863 30.7413 17.233C30.7413 14.7337 31.1477 12.4413 31.9603 10.356C32.773 8.25533 33.9153 6.446 35.3873 4.928C36.8593 3.41 38.6227 2.22933 40.6773 1.386C42.732 0.542665 44.9937 0.120999 47.4623 0.120999C48.7197 0.120999 49.9003 0.235999 51.0043 0.465999C52.1237 0.680664 53.1663 0.987331 54.1323 1.386C55.0983 1.76933 55.9877 2.237 56.8003 2.789C57.613 3.341 58.3337 3.939 58.9623 4.583L56.3403 8.102C56.1717 8.31666 55.9723 8.516 55.7423 8.7C55.5123 8.86866 55.1903 8.953 54.7763 8.953C54.5003 8.953 54.2397 8.89167 53.9943 8.769C53.749 8.64633 53.4883 8.50067 53.2123 8.332C52.9363 8.148 52.6297 7.95633 52.2923 7.757C51.9703 7.54233 51.5793 7.35067 51.1193 7.182C50.6747 6.998 50.1457 6.84466 49.5323 6.722C48.9343 6.59933 48.229 6.538 47.4163 6.538C46.1283 6.538 44.9477 6.77567 43.8743 7.251C42.8163 7.72633 41.8963 8.424 41.1143 9.344C40.3477 10.2487 39.7497 11.368 39.3203 12.702C38.9063 14.0207 38.6993 15.531 38.6993 17.233C38.6993 18.9503 38.9293 20.476 39.3893 21.81C39.8647 23.144 40.501 24.271 41.2983 25.191C42.111 26.0957 43.054 26.7857 44.1273 27.261C45.2007 27.7363 46.3507 27.974 47.5773 27.974C48.2827 27.974 48.9267 27.9433 49.5093 27.882C50.092 27.8053 50.6363 27.6903 51.1423 27.537C51.6483 27.3683 52.1237 27.1537 52.5683 26.893C53.013 26.617 53.4653 26.272 53.9253 25.858C54.1093 25.7047 54.3087 25.582 54.5233 25.49C54.738 25.3827 54.9603 25.329 55.1903 25.329ZM87.3292 25.329C87.5132 25.329 87.6972 25.3673 87.8812 25.444C88.0652 25.5053 88.2416 25.6203 88.4102 25.789L91.4922 29.032C90.1429 30.7953 88.4486 32.1293 86.4092 33.034C84.3852 33.9233 81.9856 34.368 79.2102 34.368C76.6649 34.368 74.3802 33.9387 72.3562 33.08C70.3476 32.206 68.6379 31.01 67.2272 29.492C65.8319 27.9587 64.7586 26.1493 64.0072 24.064C63.2559 21.9633 62.8802 19.6863 62.8802 17.233C62.8802 14.7337 63.2866 12.4413 64.0992 10.356C64.9119 8.25533 66.0542 6.446 67.5262 4.928C68.9982 3.41 70.7616 2.22933 72.8162 1.386C74.8709 0.542665 77.1326 0.120999 79.6012 0.120999C80.8586 0.120999 82.0392 0.235999 83.1432 0.465999C84.2626 0.680664 85.3052 0.987331 86.2712 1.386C87.2372 1.76933 88.1266 2.237 88.9392 2.789C89.7519 3.341 90.4726 3.939 91.1012 4.583L88.4792 8.102C88.3106 8.31666 88.1112 8.516 87.8812 8.7C87.6512 8.86866 87.3292 8.953 86.9152 8.953C86.6392 8.953 86.3786 8.89167 86.1332 8.769C85.8879 8.64633 85.6272 8.50067 85.3512 8.332C85.0752 8.148 84.7686 7.95633 84.4312 7.757C84.1092 7.54233 83.7182 7.35067 83.2582 7.182C82.8136 6.998 82.2846 6.84466 81.6712 6.722C81.0732 6.59933 80.3679 6.538 79.5552 6.538C78.2672 6.538 77.0866 6.77567 76.0132 7.251C74.9552 7.72633 74.0352 8.424 73.2532 9.344C72.4866 10.2487 71.8886 11.368 71.4592 12.702C71.0452 14.0207 70.8382 15.531 70.8382 17.233C70.8382 18.9503 71.0682 20.476 71.5282 21.81C72.0036 23.144 72.6399 24.271 73.4372 25.191C74.2499 26.0957 75.1929 26.7857 76.2662 27.261C77.3396 27.7363 78.4896 27.974 79.7162 27.974C80.4216 27.974 81.0656 27.9433 81.6482 27.882C82.2309 27.8053 82.7752 27.6903 83.2812 27.537C83.7872 27.3683 84.2626 27.1537 84.7072 26.893C85.1519 26.617 85.6042 26.272 86.0642 25.858C86.2482 25.7047 86.4476 25.582 86.6622 25.49C86.8769 25.3827 87.0992 25.329 87.3292 25.329Z" fill="#185998"/>
</svg>
