<svg width="380" height="58" viewBox="0 0 380 58" fill="none" xmlns="http://www.w3.org/2000/svg">
<path d="M15.065 27.934C17.089 27.934 18.5457 27.451 19.435 26.485C20.3243 25.519 20.769 24.1697 20.769 22.437C20.769 21.6703 20.654 20.9727 20.424 20.344C20.194 19.7153 19.8413 19.1787 19.366 18.734C18.906 18.274 18.3157 17.9213 17.595 17.676C16.8897 17.4307 16.0463 17.308 15.065 17.308H11.017V27.934H15.065ZM15.065 11.489C17.4263 11.489 19.4503 11.7727 21.137 12.34C22.839 12.892 24.2343 13.6587 25.323 14.64C26.427 15.6213 27.2397 16.779 27.761 18.113C28.2823 19.447 28.543 20.8883 28.543 22.437C28.543 24.1083 28.2747 25.6417 27.738 27.037C27.2013 28.4323 26.381 29.6283 25.277 30.625C24.173 31.6217 22.77 32.4037 21.068 32.971C19.3813 33.523 17.3803 33.799 15.065 33.799H11.017V45H3.243V11.489H15.065ZM57.8331 36.329C58.0171 36.329 58.2011 36.3673 58.3851 36.444C58.5691 36.5053 58.7455 36.6203 58.9141 36.789L61.9961 40.032C60.6468 41.7953 58.9525 43.1293 56.9131 44.034C54.8891 44.9233 52.4895 45.368 49.7141 45.368C47.1688 45.368 44.8841 44.9387 42.8601 44.08C40.8515 43.206 39.1418 42.01 37.7311 40.492C36.3358 38.9587 35.2625 37.1493 34.5111 35.064C33.7598 32.9633 33.3841 30.6863 33.3841 28.233C33.3841 25.7337 33.7905 23.4413 34.6031 21.356C35.4158 19.2553 36.5581 17.446 38.0301 15.928C39.5021 14.41 41.2655 13.2293 43.3201 12.386C45.3748 11.5427 47.6365 11.121 50.1051 11.121C51.3625 11.121 52.5431 11.236 53.6471 11.466C54.7665 11.6807 55.8091 11.9873 56.7751 12.386C57.7411 12.7693 58.6305 13.237 59.4431 13.789C60.2558 14.341 60.9765 14.939 61.6051 15.583L58.9831 19.102C58.8145 19.3167 58.6151 19.516 58.3851 19.7C58.1551 19.8687 57.8331 19.953 57.4191 19.953C57.1431 19.953 56.8825 19.8917 56.6371 19.769C56.3918 19.6463 56.1311 19.5007 55.8551 19.332C55.5791 19.148 55.2725 18.9563 54.9351 18.757C54.6131 18.5423 54.2221 18.3507 53.7621 18.182C53.3175 17.998 52.7885 17.8447 52.1751 17.722C51.5771 17.5993 50.8718 17.538 50.0591 17.538C48.7711 17.538 47.5905 17.7757 46.5171 18.251C45.4591 18.7263 44.5391 19.424 43.7571 20.344C42.9905 21.2487 42.3925 22.368 41.9631 23.702C41.5491 25.0207 41.3421 26.531 41.3421 28.233C41.3421 29.9503 41.5721 31.476 42.0321 32.81C42.5075 34.144 43.1438 35.271 43.9411 36.191C44.7538 37.0957 45.6968 37.7857 46.7701 38.261C47.8435 38.7363 48.9935 38.974 50.2201 38.974C50.9255 38.974 51.5695 38.9433 52.1521 38.882C52.7348 38.8053 53.2791 38.6903 53.7851 38.537C54.2911 38.3683 54.7665 38.1537 55.2111 37.893C55.6558 37.617 56.1081 37.272 56.5681 36.858C56.7521 36.7047 56.9515 36.582 57.1661 36.49C57.3808 36.3827 57.6031 36.329 57.8331 36.329ZM89.972 36.329C90.156 36.329 90.34 36.3673 90.524 36.444C90.708 36.5053 90.8844 36.6203 91.053 36.789L94.135 40.032C92.7857 41.7953 91.0914 43.1293 89.052 44.034C87.028 44.9233 84.6284 45.368 81.853 45.368C79.3077 45.368 77.023 44.9387 74.999 44.08C72.9904 43.206 71.2807 42.01 69.87 40.492C68.4747 38.9587 67.4014 37.1493 66.65 35.064C65.8987 32.9633 65.523 30.6863 65.523 28.233C65.523 25.7337 65.9294 23.4413 66.742 21.356C67.5547 19.2553 68.697 17.446 70.169 15.928C71.641 14.41 73.4044 13.2293 75.459 12.386C77.5137 11.5427 79.7754 11.121 82.244 11.121C83.5014 11.121 84.682 11.236 85.786 11.466C86.9054 11.6807 87.948 11.9873 88.914 12.386C89.88 12.7693 90.7694 13.237 91.582 13.789C92.3947 14.341 93.1154 14.939 93.744 15.583L91.122 19.102C90.9534 19.3167 90.754 19.516 90.524 19.7C90.294 19.8687 89.972 19.953 89.558 19.953C89.282 19.953 89.0214 19.8917 88.776 19.769C88.5307 19.6463 88.27 19.5007 87.994 19.332C87.718 19.148 87.4114 18.9563 87.074 18.757C86.752 18.5423 86.361 18.3507 85.901 18.182C85.4564 17.998 84.9274 17.8447 84.314 17.722C83.716 17.5993 83.0107 17.538 82.198 17.538C80.91 17.538 79.7294 17.7757 78.656 18.251C77.598 18.7263 76.678 19.424 75.896 20.344C75.1294 21.2487 74.5314 22.368 74.102 23.702C73.688 25.0207 73.481 26.531 73.481 28.233C73.481 29.9503 73.711 31.476 74.171 32.81C74.6464 34.144 75.2827 35.271 76.08 36.191C76.8927 37.0957 77.8357 37.7857 78.909 38.261C79.9824 38.7363 81.1324 38.974 82.359 38.974C83.0644 38.974 83.7084 38.9433 84.291 38.882C84.8737 38.8053 85.418 38.6903 85.924 38.537C86.43 38.3683 86.9054 38.1537 87.35 37.893C87.7947 37.617 88.247 37.272 88.707 36.858C88.891 36.7047 89.0904 36.582 89.305 36.49C89.5197 36.3827 89.742 36.329 89.972 36.329Z" fill="#185998"/>
<path d="M110.376 33.832C110.376 31.656 110.867 29.704 111.848 27.976C112.829 26.2267 114.163 24.8613 115.848 23.88C117.555 22.8987 119.443 22.408 121.512 22.408C123.944 22.408 126.067 22.9947 127.88 24.168C129.693 25.3413 131.016 27.0053 131.848 29.16H128.36C127.741 27.816 126.845 26.7813 125.672 26.056C124.52 25.3307 123.133 24.968 121.512 24.968C119.955 24.968 118.557 25.3307 117.32 26.056C116.083 26.7813 115.112 27.816 114.408 29.16C113.704 30.4827 113.352 32.04 113.352 33.832C113.352 35.6027 113.704 37.16 114.408 38.504C115.112 39.8267 116.083 40.8507 117.32 41.576C118.557 42.3013 119.955 42.664 121.512 42.664C123.133 42.664 124.52 42.312 125.672 41.608C126.845 40.8827 127.741 39.848 128.36 38.504H131.848C131.016 40.6373 129.693 42.2907 127.88 43.464C126.067 44.616 123.944 45.192 121.512 45.192C119.443 45.192 117.555 44.712 115.848 43.752C114.163 42.7707 112.829 41.416 111.848 39.688C110.867 37.96 110.376 36.008 110.376 33.832ZM152.183 35.56C152.183 36.1147 152.151 36.7013 152.087 37.32H138.071C138.177 39.048 138.764 40.4027 139.831 41.384C140.919 42.344 142.231 42.824 143.767 42.824C145.025 42.824 146.071 42.536 146.903 41.96C147.756 41.3627 148.353 40.5733 148.695 39.592H151.831C151.361 41.2773 150.423 42.6533 149.015 43.72C147.607 44.7653 145.857 45.288 143.767 45.288C142.103 45.288 140.609 44.9147 139.287 44.168C137.985 43.4213 136.961 42.3653 136.215 41C135.468 39.6133 135.095 38.0133 135.095 36.2C135.095 34.3867 135.457 32.7973 136.183 31.432C136.908 30.0667 137.921 29.0213 139.223 28.296C140.545 27.5493 142.06 27.176 143.767 27.176C145.431 27.176 146.903 27.5387 148.183 28.264C149.463 28.9893 150.444 29.992 151.127 31.272C151.831 32.5307 152.183 33.96 152.183 35.56ZM149.175 34.952C149.175 33.8427 148.929 32.8933 148.439 32.104C147.948 31.2933 147.276 30.6853 146.423 30.28C145.591 29.8533 144.663 29.64 143.639 29.64C142.167 29.64 140.908 30.1093 139.863 31.048C138.839 31.9867 138.252 33.288 138.103 34.952H149.175ZM164.571 27.144C166.704 27.144 168.432 27.7947 169.755 29.096C171.077 30.376 171.739 32.232 171.739 34.664V45H168.859V35.08C168.859 33.3307 168.421 31.9973 167.547 31.08C166.672 30.1413 165.477 29.672 163.963 29.672C162.427 29.672 161.2 30.152 160.283 31.112C159.387 32.072 158.939 33.4693 158.939 35.304V45H156.027V27.464H158.939V29.96C159.515 29.064 160.293 28.3707 161.275 27.88C162.277 27.3893 163.376 27.144 164.571 27.144ZM180.047 29.864V40.2C180.047 41.0533 180.229 41.6613 180.591 42.024C180.954 42.3653 181.583 42.536 182.479 42.536H184.623V45H181.999C180.378 45 179.162 44.6267 178.351 43.88C177.541 43.1333 177.135 41.9067 177.135 40.2V29.864H174.863V27.464H177.135V23.048H180.047V27.464H184.623V29.864H180.047ZM191.064 30.312C191.576 29.3093 192.301 28.5307 193.24 27.976C194.2 27.4213 195.362 27.144 196.728 27.144V30.152H195.96C192.696 30.152 191.064 31.9227 191.064 35.464V45H188.152V27.464H191.064V30.312ZM207.737 45.288C206.094 45.288 204.601 44.9147 203.257 44.168C201.934 43.4213 200.889 42.3653 200.121 41C199.374 39.6133 199.001 38.0133 199.001 36.2C199.001 34.408 199.385 32.8293 200.153 31.464C200.942 30.0773 202.009 29.0213 203.353 28.296C204.697 27.5493 206.201 27.176 207.865 27.176C209.529 27.176 211.033 27.5493 212.377 28.296C213.721 29.0213 214.777 30.0667 215.545 31.432C216.334 32.7973 216.729 34.3867 216.729 36.2C216.729 38.0133 216.324 39.6133 215.513 41C214.724 42.3653 213.646 43.4213 212.281 44.168C210.916 44.9147 209.401 45.288 207.737 45.288ZM207.737 42.728C208.782 42.728 209.764 42.4827 210.681 41.992C211.598 41.5013 212.334 40.7653 212.889 39.784C213.465 38.8027 213.753 37.608 213.753 36.2C213.753 34.792 213.476 33.5973 212.921 32.616C212.366 31.6347 211.641 30.9093 210.745 30.44C209.849 29.9493 208.878 29.704 207.833 29.704C206.766 29.704 205.785 29.9493 204.889 30.44C204.014 30.9093 203.31 31.6347 202.777 32.616C202.244 33.5973 201.977 34.792 201.977 36.2C201.977 37.6293 202.233 38.8347 202.745 39.816C203.278 40.7973 203.982 41.5333 204.857 42.024C205.732 42.4933 206.692 42.728 207.737 42.728ZM228.001 36.168C228.001 34.376 228.364 32.808 229.089 31.464C229.814 30.0987 230.806 29.0427 232.065 28.296C233.345 27.5493 234.774 27.176 236.353 27.176C237.718 27.176 238.988 27.496 240.161 28.136C241.334 28.7547 242.23 29.576 242.849 30.6V21.32H245.793V45H242.849V41.704C242.273 42.7493 241.42 43.6133 240.289 44.296C239.158 44.9573 237.836 45.288 236.321 45.288C234.764 45.288 233.345 44.904 232.065 44.136C230.806 43.368 229.814 42.2907 229.089 40.904C228.364 39.5173 228.001 37.9387 228.001 36.168ZM242.849 36.2C242.849 34.8773 242.582 33.7253 242.049 32.744C241.516 31.7627 240.79 31.016 239.873 30.504C238.977 29.9707 237.985 29.704 236.897 29.704C235.809 29.704 234.817 29.96 233.921 30.472C233.025 30.984 232.31 31.7307 231.777 32.712C231.244 33.6933 230.977 34.8453 230.977 36.168C230.977 37.512 231.244 38.6853 231.777 39.688C232.31 40.6693 233.025 41.4267 233.921 41.96C234.817 42.472 235.809 42.728 236.897 42.728C237.985 42.728 238.977 42.472 239.873 41.96C240.79 41.4267 241.516 40.6693 242.049 39.688C242.582 38.6853 242.849 37.5227 242.849 36.2ZM266.714 35.56C266.714 36.1147 266.682 36.7013 266.618 37.32H252.602C252.709 39.048 253.295 40.4027 254.362 41.384C255.45 42.344 256.762 42.824 258.298 42.824C259.557 42.824 260.602 42.536 261.434 41.96C262.287 41.3627 262.885 40.5733 263.226 39.592H266.362C265.893 41.2773 264.954 42.6533 263.546 43.72C262.138 44.7653 260.389 45.288 258.298 45.288C256.634 45.288 255.141 44.9147 253.818 44.168C252.517 43.4213 251.493 42.3653 250.746 41C249.999 39.6133 249.626 38.0133 249.626 36.2C249.626 34.3867 249.989 32.7973 250.714 31.432C251.439 30.0667 252.453 29.0213 253.754 28.296C255.077 27.5493 256.591 27.176 258.298 27.176C259.962 27.176 261.434 27.5387 262.714 28.264C263.994 28.9893 264.975 29.992 265.658 31.272C266.362 32.5307 266.714 33.96 266.714 35.56ZM263.706 34.952C263.706 33.8427 263.461 32.8933 262.97 32.104C262.479 31.2933 261.807 30.6853 260.954 30.28C260.122 29.8533 259.194 29.64 258.17 29.64C256.698 29.64 255.439 30.1093 254.394 31.048C253.37 31.9867 252.783 33.288 252.634 34.952H263.706ZM278.001 36.168C278.001 34.376 278.364 32.808 279.089 31.464C279.814 30.0987 280.806 29.0427 282.065 28.296C283.345 27.5493 284.764 27.176 286.321 27.176C287.857 27.176 289.19 27.5067 290.321 28.168C291.452 28.8293 292.294 29.6613 292.849 30.664V27.464H295.793V45H292.849V41.736C292.273 42.76 291.409 43.6133 290.257 44.296C289.126 44.9573 287.804 45.288 286.289 45.288C284.732 45.288 283.324 44.904 282.065 44.136C280.806 43.368 279.814 42.2907 279.089 40.904C278.364 39.5173 278.001 37.9387 278.001 36.168ZM292.849 36.2C292.849 34.8773 292.582 33.7253 292.049 32.744C291.516 31.7627 290.79 31.016 289.873 30.504C288.977 29.9707 287.985 29.704 286.897 29.704C285.809 29.704 284.817 29.96 283.921 30.472C283.025 30.984 282.31 31.7307 281.777 32.712C281.244 33.6933 280.977 34.8453 280.977 36.168C280.977 37.512 281.244 38.6853 281.777 39.688C282.31 40.6693 283.025 41.4267 283.921 41.96C284.817 42.472 285.809 42.728 286.897 42.728C287.985 42.728 288.977 42.472 289.873 41.96C290.79 41.4267 291.516 40.6693 292.049 39.688C292.582 38.6853 292.849 37.5227 292.849 36.2ZM315.818 27.464L305.258 53.256H302.25L305.706 44.808L298.634 27.464H301.866L307.37 41.672L312.81 27.464H315.818ZM334.297 27.464V45H331.385V42.408C330.831 43.304 330.052 44.008 329.049 44.52C328.068 45.0107 326.98 45.256 325.785 45.256C324.42 45.256 323.193 44.9787 322.105 44.424C321.017 43.848 320.153 42.9947 319.513 41.864C318.895 40.7333 318.585 39.3573 318.585 37.736V27.464H321.465V37.352C321.465 39.08 321.903 40.4133 322.777 41.352C323.652 42.2693 324.847 42.728 326.361 42.728C327.919 42.728 329.145 42.248 330.041 41.288C330.937 40.328 331.385 38.9307 331.385 37.096V27.464H334.297ZM338.126 36.168C338.126 34.376 338.489 32.808 339.214 31.464C339.939 30.0987 340.931 29.0427 342.19 28.296C343.47 27.5493 344.899 27.176 346.478 27.176C347.843 27.176 349.113 27.496 350.286 28.136C351.459 28.7547 352.355 29.576 352.974 30.6V21.32H355.918V45H352.974V41.704C352.398 42.7493 351.545 43.6133 350.414 44.296C349.283 44.9573 347.961 45.288 346.446 45.288C344.889 45.288 343.47 44.904 342.19 44.136C340.931 43.368 339.939 42.2907 339.214 40.904C338.489 39.5173 338.126 37.9387 338.126 36.168ZM352.974 36.2C352.974 34.8773 352.707 33.7253 352.174 32.744C351.641 31.7627 350.915 31.016 349.998 30.504C349.102 29.9707 348.11 29.704 347.022 29.704C345.934 29.704 344.942 29.96 344.046 30.472C343.15 30.984 342.435 31.7307 341.902 32.712C341.369 33.6933 341.102 34.8453 341.102 36.168C341.102 37.512 341.369 38.6853 341.902 39.688C342.435 40.6693 343.15 41.4267 344.046 41.96C344.942 42.472 345.934 42.728 347.022 42.728C348.11 42.728 349.102 42.472 349.998 41.96C350.915 41.4267 351.641 40.6693 352.174 39.688C352.707 38.6853 352.974 37.5227 352.974 36.2ZM359.751 36.168C359.751 34.376 360.114 32.808 360.839 31.464C361.564 30.0987 362.556 29.0427 363.815 28.296C365.095 27.5493 366.514 27.176 368.071 27.176C369.607 27.176 370.94 27.5067 372.071 28.168C373.202 28.8293 374.044 29.6613 374.599 30.664V27.464H377.543V45H374.599V41.736C374.023 42.76 373.159 43.6133 372.007 44.296C370.876 44.9573 369.554 45.288 368.039 45.288C366.482 45.288 365.074 44.904 363.815 44.136C362.556 43.368 361.564 42.2907 360.839 40.904C360.114 39.5173 359.751 37.9387 359.751 36.168ZM374.599 36.2C374.599 34.8773 374.332 33.7253 373.799 32.744C373.266 31.7627 372.54 31.016 371.623 30.504C370.727 29.9707 369.735 29.704 368.647 29.704C367.559 29.704 366.567 29.96 365.671 30.472C364.775 30.984 364.06 31.7307 363.527 32.712C362.994 33.6933 362.727 34.8453 362.727 36.168C362.727 37.512 362.994 38.6853 363.527 39.688C364.06 40.6693 364.775 41.4267 365.671 41.96C366.567 42.472 367.559 42.728 368.647 42.728C369.735 42.728 370.727 42.472 371.623 41.96C372.54 41.4267 373.266 40.6693 373.799 39.688C374.332 38.6853 374.599 37.5227 374.599 36.2Z" fill="#757575"/>
</svg>
