<svg width="98" height="40" viewBox="0 0 98 40" fill="none" xmlns="http://www.w3.org/2000/svg">
<rect width="98" height="39.6001" fill="#FFF"/>
<path d="M7 17.3385C7 17.3385 11.5208 9.47883 21 10.7762C30.4792 12.0735 35 7 35 7C35 7 30.4792 10.1331 21 8.83581C11.5208 7.53847 7 17.2947 7 17.2947V17.3385Z" fill="#000AFF"/>
<path d="M21 31.6039C16.2741 31.6039 12.4329 27.7626 12.4329 23.0368C12.4329 21.156 13.0306 19.3708 14.1622 17.8726C14.3615 17.6096 14.736 17.5618 14.999 17.761C15.262 17.9602 15.3178 18.3348 15.1186 18.5978C14.1478 19.8737 13.6241 21.4336 13.6283 23.0368C13.6283 27.1012 16.9356 30.4085 21 30.4085C25.0644 30.4085 28.3717 27.1012 28.3717 23.0368C28.3717 18.9724 25.0644 15.665 21 15.665C20.6732 15.665 20.4023 15.3941 20.4023 15.0673C20.4023 14.7406 20.6732 14.4696 21 14.4696C25.7258 14.4696 29.5671 18.3109 29.5671 23.0368C29.5671 27.7626 25.7258 31.6039 21 31.6039Z" fill="#ED0E0E"/>
<path d="M21 29.213C17.5971 29.213 14.8237 26.4397 14.8237 23.0367C14.8237 22.71 15.0947 22.439 15.4214 22.439C15.7482 22.439 16.0191 22.71 16.0191 23.0367C16.0191 25.7862 18.2506 28.0176 21 28.0176C23.7495 28.0176 25.9809 25.7862 25.9809 23.0367C25.9809 20.2873 23.7495 18.0559 21 18.0559C20.6733 18.0559 20.4023 17.7849 20.4023 17.4581C20.4023 17.1314 20.6733 16.8604 21 16.8604C24.403 16.8604 27.1763 19.6338 27.1763 23.0367C27.1763 26.4397 24.403 29.213 21 29.213Z" fill="#000AFF"/>
<path d="M21 26.8222C20.6732 26.8222 20.4023 26.5513 20.4023 26.2245C20.4023 25.8978 20.6732 25.6268 21 25.6268C22.4265 25.6268 23.59 24.4633 23.59 23.0368C23.59 21.6102 22.4265 20.4467 21 20.4467C20.6732 20.4467 20.4023 20.1757 20.4023 19.849C20.4023 19.5222 20.6732 19.2513 21 19.2513C23.088 19.2513 24.7855 20.9488 24.7855 23.0368C24.7855 25.1247 23.088 26.8222 21 26.8222Z" fill="#FFF502"/>
<path d="M51.2053 13.336C50.8893 13.336 50.5973 13.284 50.3293 13.18C50.0613 13.072 49.8293 12.922 49.6333 12.73C49.4373 12.538 49.2833 12.312 49.1713 12.052C49.0633 11.792 49.0093 11.508 49.0093 11.2C49.0093 10.892 49.0633 10.608 49.1713 10.348C49.2833 10.088 49.4373 9.86202 49.6333 9.67002C49.8333 9.47802 50.0673 9.33002 50.3353 9.22602C50.6033 9.11802 50.8953 9.06402 51.2113 9.06402C51.5153 9.06402 51.8013 9.11602 52.0693 9.22002C52.3373 9.32002 52.5633 9.47202 52.7473 9.67602L52.4653 9.95802C52.2933 9.78202 52.1033 9.65602 51.8953 9.58002C51.6873 9.50002 51.4633 9.46002 51.2233 9.46002C50.9713 9.46002 50.7373 9.50402 50.5213 9.59202C50.3053 9.67602 50.1173 9.79802 49.9573 9.95802C49.7973 10.114 49.6713 10.298 49.5793 10.51C49.4913 10.718 49.4473 10.948 49.4473 11.2C49.4473 11.452 49.4913 11.684 49.5793 11.896C49.6713 12.104 49.7973 12.288 49.9573 12.448C50.1173 12.604 50.3053 12.726 50.5213 12.814C50.7373 12.898 50.9713 12.94 51.2233 12.94C51.4633 12.94 51.6873 12.9 51.8953 12.82C52.1033 12.74 52.2933 12.612 52.4653 12.436L52.7473 12.718C52.5633 12.922 52.3373 13.076 52.0693 13.18C51.8013 13.284 51.5133 13.336 51.2053 13.336ZM54.8003 13.33C54.5323 13.33 54.2983 13.28 54.0983 13.18C53.8983 13.08 53.7423 12.93 53.6303 12.73C53.5223 12.53 53.4683 12.28 53.4683 11.98V10.15H53.8943V11.932C53.8943 12.268 53.9763 12.522 54.1403 12.694C54.3083 12.862 54.5423 12.946 54.8423 12.946C55.0623 12.946 55.2523 12.902 55.4123 12.814C55.5763 12.722 55.7003 12.59 55.7843 12.418C55.8723 12.246 55.9163 12.04 55.9163 11.8V10.15H56.3423V13.3H55.9343V12.436L56.0003 12.592C55.9003 12.824 55.7443 13.006 55.5323 13.138C55.3243 13.266 55.0803 13.33 54.8003 13.33ZM58.8675 13.33C58.5395 13.33 58.2515 13.262 58.0035 13.126C57.7555 12.986 57.5615 12.796 57.4215 12.556C57.2815 12.312 57.2115 12.034 57.2115 11.722C57.2115 11.41 57.2775 11.134 57.4095 10.894C57.5455 10.654 57.7295 10.466 57.9615 10.33C58.1975 10.19 58.4615 10.12 58.7535 10.12C59.0495 10.12 59.3115 10.188 59.5395 10.324C59.7715 10.456 59.9535 10.644 60.0855 10.888C60.2175 11.128 60.2835 11.406 60.2835 11.722C60.2835 11.742 60.2815 11.764 60.2775 11.788C60.2775 11.808 60.2775 11.83 60.2775 11.854H57.5355V11.536H60.0495L59.8815 11.662C59.8815 11.434 59.8315 11.232 59.7315 11.056C59.6355 10.876 59.5035 10.736 59.3355 10.636C59.1675 10.536 58.9735 10.486 58.7535 10.486C58.5375 10.486 58.3435 10.536 58.1715 10.636C57.9995 10.736 57.8655 10.876 57.7695 11.056C57.6735 11.236 57.6255 11.442 57.6255 11.674V11.74C57.6255 11.98 57.6775 12.192 57.7815 12.376C57.8895 12.556 58.0375 12.698 58.2255 12.802C58.4175 12.902 58.6355 12.952 58.8795 12.952C59.0715 12.952 59.2495 12.918 59.4135 12.85C59.5815 12.782 59.7255 12.678 59.8455 12.538L60.0855 12.814C59.9455 12.982 59.7695 13.11 59.5575 13.198C59.3495 13.286 59.1195 13.33 58.8675 13.33ZM62.7586 10.12C63.0146 10.12 63.2386 10.17 63.4306 10.27C63.6266 10.366 63.7786 10.514 63.8866 10.714C63.9986 10.914 64.0546 11.166 64.0546 11.47V13.3H63.6286V11.512C63.6286 11.18 63.5446 10.93 63.3766 10.762C63.2126 10.59 62.9806 10.504 62.6806 10.504C62.4566 10.504 62.2606 10.55 62.0926 10.642C61.9286 10.73 61.8006 10.86 61.7086 11.032C61.6206 11.2 61.5766 11.404 61.5766 11.644V13.3H61.1506V10.15H61.5586V11.014L61.4926 10.852C61.5926 10.624 61.7526 10.446 61.9726 10.318C62.1926 10.186 62.4546 10.12 62.7586 10.12ZM66.2013 13.33C65.9053 13.33 65.6773 13.25 65.5173 13.09C65.3573 12.93 65.2773 12.704 65.2773 12.412V9.45402H65.7033V12.388C65.7033 12.572 65.7493 12.714 65.8413 12.814C65.9373 12.914 66.0733 12.964 66.2493 12.964C66.4373 12.964 66.5933 12.91 66.7173 12.802L66.8673 13.108C66.7833 13.184 66.6813 13.24 66.5613 13.276C66.4453 13.312 66.3253 13.33 66.2013 13.33ZM64.7133 10.504V10.15H66.6633V10.504H64.7133ZM69.6168 13.3V12.604L69.5988 12.49V11.326C69.5988 11.058 69.5228 10.852 69.3708 10.708C69.2228 10.564 69.0008 10.492 68.7048 10.492C68.5008 10.492 68.3068 10.526 68.1228 10.594C67.9388 10.662 67.7828 10.752 67.6548 10.864L67.4628 10.546C67.6228 10.41 67.8148 10.306 68.0388 10.234C68.2628 10.158 68.4988 10.12 68.7468 10.12C69.1548 10.12 69.4688 10.222 69.6888 10.426C69.9128 10.626 70.0248 10.932 70.0248 11.344V13.3H69.6168ZM68.5308 13.33C68.2948 13.33 68.0888 13.292 67.9128 13.216C67.7408 13.136 67.6088 13.028 67.5168 12.892C67.4248 12.752 67.3788 12.592 67.3788 12.412C67.3788 12.248 67.4168 12.1 67.4928 11.968C67.5728 11.832 67.7008 11.724 67.8768 11.644C68.0568 11.56 68.2968 11.518 68.5968 11.518H69.6828V11.836H68.6088C68.3048 11.836 68.0928 11.89 67.9728 11.998C67.8568 12.106 67.7988 12.24 67.7988 12.4C67.7988 12.58 67.8688 12.724 68.0088 12.832C68.1488 12.94 68.3448 12.994 68.5968 12.994C68.8368 12.994 69.0428 12.94 69.2148 12.832C69.3908 12.72 69.5188 12.56 69.5988 12.352L69.6948 12.646C69.6148 12.854 69.4748 13.02 69.2748 13.144C69.0788 13.268 68.8308 13.33 68.5308 13.33ZM74.0602 13.33C73.7482 13.33 73.4682 13.262 73.2202 13.126C72.9762 12.986 72.7842 12.796 72.6442 12.556C72.5042 12.312 72.4342 12.034 72.4342 11.722C72.4342 11.406 72.5042 11.128 72.6442 10.888C72.7842 10.648 72.9762 10.46 73.2202 10.324C73.4682 10.188 73.7482 10.12 74.0602 10.12C74.3282 10.12 74.5702 10.172 74.7862 10.276C75.0022 10.38 75.1722 10.536 75.2962 10.744L74.9782 10.96C74.8702 10.8 74.7362 10.682 74.5762 10.606C74.4162 10.53 74.2422 10.492 74.0542 10.492C73.8302 10.492 73.6282 10.544 73.4482 10.648C73.2682 10.748 73.1262 10.89 73.0222 11.074C72.9182 11.258 72.8662 11.474 72.8662 11.722C72.8662 11.97 72.9182 12.186 73.0222 12.37C73.1262 12.554 73.2682 12.698 73.4482 12.802C73.6282 12.902 73.8302 12.952 74.0542 12.952C74.2422 12.952 74.4162 12.914 74.5762 12.838C74.7362 12.762 74.8702 12.646 74.9782 12.49L75.2962 12.706C75.1722 12.91 75.0022 13.066 74.7862 13.174C74.5702 13.278 74.3282 13.33 74.0602 13.33ZM77.3643 13.33C77.0603 13.33 76.7863 13.262 76.5423 13.126C76.3023 12.986 76.1123 12.796 75.9723 12.556C75.8323 12.312 75.7623 12.034 75.7623 11.722C75.7623 11.406 75.8323 11.128 75.9723 10.888C76.1123 10.648 76.3023 10.46 76.5423 10.324C76.7823 10.188 77.0563 10.12 77.3643 10.12C77.6763 10.12 77.9523 10.188 78.1923 10.324C78.4363 10.46 78.6263 10.648 78.7623 10.888C78.9023 11.128 78.9723 11.406 78.9723 11.722C78.9723 12.034 78.9023 12.312 78.7623 12.556C78.6263 12.796 78.4363 12.986 78.1923 13.126C77.9483 13.262 77.6723 13.33 77.3643 13.33ZM77.3643 12.952C77.5923 12.952 77.7943 12.902 77.9703 12.802C78.1463 12.698 78.2843 12.554 78.3843 12.37C78.4883 12.182 78.5403 11.966 78.5403 11.722C78.5403 11.474 78.4883 11.258 78.3843 11.074C78.2843 10.89 78.1463 10.748 77.9703 10.648C77.7943 10.544 77.5943 10.492 77.3703 10.492C77.1463 10.492 76.9463 10.544 76.7703 10.648C76.5943 10.748 76.4543 10.89 76.3503 11.074C76.2463 11.258 76.1943 11.474 76.1943 11.722C76.1943 11.966 76.2463 12.182 76.3503 12.37C76.4543 12.554 76.5943 12.698 76.7703 12.802C76.9463 12.902 77.1443 12.952 77.3643 12.952ZM81.45 10.12C81.706 10.12 81.93 10.17 82.122 10.27C82.318 10.366 82.47 10.514 82.578 10.714C82.69 10.914 82.746 11.166 82.746 11.47V13.3H82.32V11.512C82.32 11.18 82.236 10.93 82.068 10.762C81.904 10.59 81.672 10.504 81.372 10.504C81.148 10.504 80.952 10.55 80.784 10.642C80.62 10.73 80.492 10.86 80.4 11.032C80.312 11.2 80.268 11.404 80.268 11.644V13.3H79.842V10.15H80.25V11.014L80.184 10.852C80.284 10.624 80.444 10.446 80.664 10.318C80.884 10.186 81.146 10.12 81.45 10.12Z" fill="#777777"/>
<path d="M41.8652 24.3V18H43.3232V24.3H41.8652ZM46.3483 24.372C45.9343 24.372 45.5353 24.324 45.1513 24.228C44.7733 24.126 44.4733 24 44.2513 23.85L44.7193 22.842C44.9413 22.98 45.2023 23.094 45.5023 23.184C45.8083 23.268 46.1083 23.31 46.4023 23.31C46.7263 23.31 46.9543 23.271 47.0863 23.193C47.2243 23.115 47.2933 23.007 47.2933 22.869C47.2933 22.755 47.2393 22.671 47.1313 22.617C47.0293 22.557 46.8913 22.512 46.7173 22.482C46.5433 22.452 46.3513 22.422 46.1413 22.392C45.9373 22.362 45.7303 22.323 45.5203 22.275C45.3103 22.221 45.1183 22.143 44.9443 22.041C44.7703 21.939 44.6293 21.801 44.5213 21.627C44.4193 21.453 44.3683 21.228 44.3683 20.952C44.3683 20.646 44.4553 20.376 44.6293 20.142C44.8093 19.908 45.0673 19.725 45.4033 19.593C45.7393 19.455 46.1413 19.386 46.6093 19.386C46.9393 19.386 47.2753 19.422 47.6173 19.494C47.9593 19.566 48.2443 19.671 48.4723 19.809L48.0043 20.808C47.7703 20.67 47.5333 20.577 47.2933 20.529C47.0593 20.475 46.8313 20.448 46.6093 20.448C46.2973 20.448 46.0693 20.49 45.9253 20.574C45.7813 20.658 45.7093 20.766 45.7093 20.898C45.7093 21.018 45.7603 21.108 45.8623 21.168C45.9703 21.228 46.1113 21.276 46.2853 21.312C46.4593 21.348 46.6483 21.381 46.8523 21.411C47.0623 21.435 47.2723 21.474 47.4823 21.528C47.6923 21.582 47.8813 21.66 48.0493 21.762C48.2233 21.858 48.3643 21.993 48.4723 22.167C48.5803 22.335 48.6343 22.557 48.6343 22.833C48.6343 23.133 48.5443 23.4 48.3643 23.634C48.1843 23.862 47.9233 24.042 47.5813 24.174C47.2453 24.306 46.8343 24.372 46.3483 24.372ZM51.9035 24.372C51.3515 24.372 50.8655 24.264 50.4455 24.048C50.0315 23.832 49.7105 23.538 49.4825 23.166C49.2545 22.788 49.1405 22.359 49.1405 21.879C49.1405 21.393 49.2515 20.964 49.4735 20.592C49.7015 20.214 50.0105 19.92 50.4005 19.71C50.7905 19.494 51.2315 19.386 51.7235 19.386C52.1975 19.386 52.6235 19.488 53.0015 19.692C53.3855 19.89 53.6885 20.178 53.9105 20.556C54.1325 20.928 54.2435 21.375 54.2435 21.897C54.2435 21.951 54.2405 22.014 54.2345 22.086C54.2285 22.152 54.2225 22.215 54.2165 22.275H50.2835V21.456H53.4785L52.9385 21.699C52.9385 21.447 52.8875 21.228 52.7855 21.042C52.6835 20.856 52.5425 20.712 52.3625 20.61C52.1825 20.502 51.9725 20.448 51.7325 20.448C51.4925 20.448 51.2795 20.502 51.0935 20.61C50.9135 20.712 50.7725 20.859 50.6705 21.051C50.5685 21.237 50.5175 21.459 50.5175 21.717V21.933C50.5175 22.197 50.5745 22.431 50.6885 22.635C50.8085 22.833 50.9735 22.986 51.1835 23.094C51.3995 23.196 51.6515 23.247 51.9395 23.247C52.1975 23.247 52.4225 23.208 52.6145 23.13C52.8125 23.052 52.9925 22.935 53.1545 22.779L53.9015 23.589C53.6795 23.841 53.4005 24.036 53.0645 24.174C52.7285 24.306 52.3415 24.372 51.9035 24.372ZM55.1783 24.3V19.458H56.5193V20.826L56.3303 20.43C56.4743 20.088 56.7053 19.83 57.0233 19.656C57.3413 19.476 57.7283 19.386 58.1843 19.386V20.682C58.1243 20.676 58.0703 20.673 58.0223 20.673C57.9743 20.667 57.9233 20.664 57.8693 20.664C57.4853 20.664 57.1733 20.775 56.9333 20.997C56.6993 21.213 56.5823 21.552 56.5823 22.014V24.3H55.1783ZM61.7021 24.3V18H63.1601V23.112H66.3191V24.3H61.7021ZM70.0399 24.3V23.355L69.9499 23.148V21.456C69.9499 21.156 69.8569 20.922 69.6709 20.754C69.4909 20.586 69.2119 20.502 68.8339 20.502C68.5759 20.502 68.3209 20.544 68.0689 20.628C67.8229 20.706 67.6129 20.814 67.4389 20.952L66.9349 19.971C67.1989 19.785 67.5169 19.641 67.8889 19.539C68.2609 19.437 68.6389 19.386 69.0229 19.386C69.7609 19.386 70.3339 19.56 70.7419 19.908C71.1499 20.256 71.3539 20.799 71.3539 21.537V24.3H70.0399ZM68.5639 24.372C68.1859 24.372 67.8619 24.309 67.5919 24.183C67.3219 24.051 67.1149 23.874 66.9709 23.652C66.8269 23.43 66.7549 23.181 66.7549 22.905C66.7549 22.617 66.8239 22.365 66.9619 22.149C67.1059 21.933 67.3309 21.765 67.6369 21.645C67.9429 21.519 68.3419 21.456 68.8339 21.456H70.1209V22.275H68.9869C68.6569 22.275 68.4289 22.329 68.3029 22.437C68.1829 22.545 68.1229 22.68 68.1229 22.842C68.1229 23.022 68.1919 23.166 68.3299 23.274C68.4739 23.376 68.6689 23.427 68.9149 23.427C69.1489 23.427 69.3589 23.373 69.5449 23.265C69.7309 23.151 69.8659 22.986 69.9499 22.77L70.1659 23.418C70.0639 23.73 69.8779 23.967 69.6079 24.129C69.3379 24.291 68.9899 24.372 68.5639 24.372ZM74.6046 24.372C74.0346 24.372 73.5906 24.228 73.2726 23.94C72.9546 23.646 72.7956 23.211 72.7956 22.635V18.387H74.1996V22.617C74.1996 22.821 74.2536 22.98 74.3616 23.094C74.4696 23.202 74.6166 23.256 74.8026 23.256C75.0246 23.256 75.2136 23.196 75.3696 23.076L75.7476 24.066C75.6036 24.168 75.4296 24.246 75.2256 24.3C75.0276 24.348 74.8206 24.372 74.6046 24.372ZM72.0486 20.646V19.566H75.4056V20.646H72.0486ZM79.5057 24.3V23.355L79.4157 23.148V21.456C79.4157 21.156 79.3227 20.922 79.1367 20.754C78.9567 20.586 78.6777 20.502 78.2997 20.502C78.0417 20.502 77.7867 20.544 77.5347 20.628C77.2887 20.706 77.0787 20.814 76.9047 20.952L76.4007 19.971C76.6647 19.785 76.9827 19.641 77.3547 19.539C77.7267 19.437 78.1047 19.386 78.4887 19.386C79.2267 19.386 79.7997 19.56 80.2077 19.908C80.6157 20.256 80.8197 20.799 80.8197 21.537V24.3H79.5057ZM78.0297 24.372C77.6517 24.372 77.3277 24.309 77.0577 24.183C76.7877 24.051 76.5807 23.874 76.4367 23.652C76.2927 23.43 76.2207 23.181 76.2207 22.905C76.2207 22.617 76.2897 22.365 76.4277 22.149C76.5717 21.933 76.7967 21.765 77.1027 21.645C77.4087 21.519 77.8077 21.456 78.2997 21.456H79.5867V22.275H78.4527C78.1227 22.275 77.8947 22.329 77.7687 22.437C77.6487 22.545 77.5887 22.68 77.5887 22.842C77.5887 23.022 77.6577 23.166 77.7957 23.274C77.9397 23.376 78.1347 23.427 78.3807 23.427C78.6147 23.427 78.8247 23.373 79.0107 23.265C79.1967 23.151 79.3317 22.986 79.4157 22.77L79.6317 23.418C79.5297 23.73 79.3437 23.967 79.0737 24.129C78.8037 24.291 78.4557 24.372 78.0297 24.372ZM88.2914 19.386C88.6754 19.386 89.0144 19.464 89.3084 19.62C89.6084 19.77 89.8424 20.004 90.0104 20.322C90.1844 20.634 90.2714 21.036 90.2714 21.528V24.3H88.8674V21.744C88.8674 21.354 88.7864 21.066 88.6244 20.88C88.4624 20.694 88.2344 20.601 87.9404 20.601C87.7364 20.601 87.5534 20.649 87.3914 20.745C87.2294 20.835 87.1034 20.973 87.0134 21.159C86.9234 21.345 86.8784 21.582 86.8784 21.87V24.3H85.4744V21.744C85.4744 21.354 85.3934 21.066 85.2314 20.88C85.0754 20.694 84.8504 20.601 84.5564 20.601C84.3524 20.601 84.1694 20.649 84.0074 20.745C83.8454 20.835 83.7194 20.973 83.6294 21.159C83.5394 21.345 83.4944 21.582 83.4944 21.87V24.3H82.0904V19.458H83.4314V20.781L83.1794 20.394C83.3474 20.064 83.5844 19.815 83.8904 19.647C84.2024 19.473 84.5564 19.386 84.9524 19.386C85.3964 19.386 85.7834 19.5 86.1134 19.728C86.4494 19.95 86.6714 20.292 86.7794 20.754L86.2844 20.619C86.4464 20.241 86.7044 19.941 87.0584 19.719C87.4184 19.497 87.8294 19.386 88.2914 19.386Z" fill="#444444"/>
<path d="M46.2531 31.3L45.4691 29.164H45.9411L46.6131 31.048H46.3891L47.0931 29.164H47.5131L48.1971 31.048H47.9771L48.6691 29.164H49.1131L48.3251 31.3H47.8451L47.2211 29.632H47.3691L46.7331 31.3H46.2531ZM49.8859 31.3L49.1019 29.164H49.5739L50.2459 31.048H50.0219L50.7259 29.164H51.1459L51.8299 31.048H51.6099L52.3019 29.164H52.7459L51.9579 31.3H51.4779L50.8539 29.632H51.0019L50.3659 31.3H49.8859ZM53.5188 31.3L52.7348 29.164H53.2068L53.8788 31.048H53.6548L54.3588 29.164H54.7788L55.4628 31.048H55.2428L55.9348 29.164H56.3788L55.5908 31.3H55.1108L54.4868 29.632H54.6348L53.9988 31.3H53.5188ZM56.7497 31.328C56.6591 31.328 56.5817 31.2974 56.5177 31.236C56.4537 31.172 56.4217 31.092 56.4217 30.996C56.4217 30.8947 56.4537 30.8147 56.5177 30.756C56.5817 30.6947 56.6591 30.664 56.7497 30.664C56.8404 30.664 56.9177 30.6947 56.9817 30.756C57.0457 30.8147 57.0777 30.8947 57.0777 30.996C57.0777 31.092 57.0457 31.172 56.9817 31.236C56.9177 31.2974 56.8404 31.328 56.7497 31.328ZM57.5663 31.3V29.164H58.0663V31.3H57.5663ZM57.8183 28.812C57.7249 28.812 57.6476 28.7827 57.5863 28.724C57.5276 28.6654 57.4983 28.5947 57.4983 28.512C57.4983 28.4267 57.5276 28.356 57.5863 28.3C57.6476 28.2414 57.7249 28.212 57.8183 28.212C57.9116 28.212 57.9876 28.24 58.0463 28.296C58.1076 28.3494 58.1383 28.4174 58.1383 28.5C58.1383 28.588 58.1089 28.6627 58.0503 28.724C57.9916 28.7827 57.9143 28.812 57.8183 28.812ZM59.3825 31.328C59.2039 31.328 59.0319 31.3054 58.8665 31.26C58.7039 31.212 58.5745 31.1547 58.4785 31.088L58.6705 30.708C58.7665 30.7694 58.8812 30.82 59.0145 30.86C59.1479 30.9 59.2812 30.92 59.4145 30.92C59.5719 30.92 59.6852 30.8987 59.7545 30.856C59.8265 30.8134 59.8625 30.756 59.8625 30.684C59.8625 30.6254 59.8385 30.5814 59.7905 30.552C59.7425 30.52 59.6799 30.496 59.6025 30.48C59.5252 30.464 59.4385 30.4494 59.3425 30.436C59.2492 30.4227 59.1545 30.4054 59.0585 30.384C58.9652 30.36 58.8799 30.3267 58.8025 30.284C58.7252 30.2387 58.6625 30.1787 58.6145 30.104C58.5665 30.0294 58.5425 29.9307 58.5425 29.808C58.5425 29.672 58.5812 29.5547 58.6585 29.456C58.7359 29.3547 58.8439 29.2774 58.9825 29.224C59.1239 29.168 59.2905 29.14 59.4825 29.14C59.6265 29.14 59.7719 29.156 59.9185 29.188C60.0652 29.22 60.1865 29.2654 60.2825 29.324L60.0905 29.704C59.9892 29.6427 59.8865 29.6014 59.7825 29.58C59.6812 29.556 59.5799 29.544 59.4785 29.544C59.3265 29.544 59.2132 29.5667 59.1385 29.612C59.0665 29.6574 59.0305 29.7147 59.0305 29.784C59.0305 29.848 59.0545 29.896 59.1025 29.928C59.1505 29.96 59.2132 29.9854 59.2905 30.004C59.3679 30.0227 59.4532 30.0387 59.5465 30.052C59.6425 30.0627 59.7372 30.08 59.8305 30.104C59.9239 30.128 60.0092 30.1614 60.0865 30.204C60.1665 30.244 60.2305 30.3014 60.2785 30.376C60.3265 30.4507 60.3505 30.548 60.3505 30.668C60.3505 30.8014 60.3105 30.9174 60.2305 31.016C60.1532 31.1147 60.0425 31.192 59.8985 31.248C59.7545 31.3014 59.5825 31.328 59.3825 31.328ZM61.7851 31.328C61.5478 31.328 61.3398 31.2814 61.1611 31.188C60.9851 31.092 60.8478 30.9614 60.7491 30.796C60.6531 30.6307 60.6051 30.4427 60.6051 30.232C60.6051 30.0187 60.6518 29.8307 60.7451 29.668C60.8411 29.5027 60.9718 29.3734 61.1371 29.28C61.3051 29.1867 61.4958 29.14 61.7091 29.14C61.9171 29.14 62.1025 29.1854 62.2651 29.276C62.4278 29.3667 62.5558 29.4947 62.6491 29.66C62.7425 29.8254 62.7891 30.02 62.7891 30.244C62.7891 30.2654 62.7878 30.2894 62.7851 30.316C62.7851 30.3427 62.7838 30.368 62.7811 30.392H61.0011V30.06H62.5171L62.3211 30.164C62.3238 30.0414 62.2985 29.9334 62.2451 29.84C62.1918 29.7467 62.1185 29.6734 62.0251 29.62C61.9345 29.5667 61.8291 29.54 61.7091 29.54C61.5865 29.54 61.4785 29.5667 61.3851 29.62C61.2945 29.6734 61.2225 29.748 61.1691 29.844C61.1185 29.9374 61.0931 30.048 61.0931 30.176V30.256C61.0931 30.384 61.1225 30.4974 61.1811 30.596C61.2398 30.6947 61.3225 30.7707 61.4291 30.824C61.5358 30.8774 61.6585 30.904 61.7971 30.904C61.9171 30.904 62.0251 30.8854 62.1211 30.848C62.2171 30.8107 62.3025 30.752 62.3771 30.672L62.6451 30.98C62.5491 31.092 62.4278 31.1787 62.2811 31.24C62.1371 31.2987 61.9718 31.328 61.7851 31.328ZM63.2694 31.3V29.164H63.7454V29.752L63.6894 29.58C63.7534 29.436 63.8534 29.3267 63.9894 29.252C64.1281 29.1774 64.3001 29.14 64.5054 29.14V29.616C64.4841 29.6107 64.4641 29.608 64.4454 29.608C64.4267 29.6054 64.4081 29.604 64.3894 29.604C64.2001 29.604 64.0494 29.66 63.9374 29.772C63.8254 29.8814 63.7694 30.0454 63.7694 30.264V31.3H63.2694ZM64.9296 31.3V28.332H65.4296V31.3H64.9296ZM67.4018 31.3V30.868L67.3738 30.776V30.02C67.3738 29.8734 67.3298 29.76 67.2418 29.68C67.1538 29.5974 67.0205 29.556 66.8418 29.556C66.7218 29.556 66.6031 29.5747 66.4858 29.612C66.3711 29.6494 66.2738 29.7014 66.1938 29.768L65.9978 29.404C66.1125 29.316 66.2485 29.2507 66.4058 29.208C66.5658 29.1627 66.7311 29.14 66.9018 29.14C67.2111 29.14 67.4498 29.2147 67.6178 29.364C67.7885 29.5107 67.8738 29.7387 67.8738 30.048V31.3H67.4018ZM66.7298 31.328C66.5698 31.328 66.4298 31.3014 66.3098 31.248C66.1898 31.192 66.0965 31.116 66.0298 31.02C65.9658 30.9214 65.9338 30.8107 65.9338 30.688C65.9338 30.568 65.9618 30.46 66.0178 30.364C66.0765 30.268 66.1711 30.192 66.3018 30.136C66.4325 30.08 66.6058 30.052 66.8218 30.052H67.4418V30.384H66.8578C66.6871 30.384 66.5725 30.412 66.5138 30.468C66.4551 30.5214 66.4258 30.588 66.4258 30.668C66.4258 30.7587 66.4618 30.8307 66.5338 30.884C66.6058 30.9374 66.7058 30.964 66.8338 30.964C66.9565 30.964 67.0658 30.936 67.1618 30.88C67.2605 30.824 67.3311 30.7414 67.3738 30.632L67.4578 30.932C67.4098 31.0574 67.3231 31.1547 67.1978 31.224C67.0751 31.2934 66.9191 31.328 66.7298 31.328ZM69.3195 31.328C69.0848 31.328 68.9035 31.268 68.7755 31.148C68.6475 31.0254 68.5835 30.8454 68.5835 30.608V28.692H69.0835V30.596C69.0835 30.6974 69.1088 30.776 69.1595 30.832C69.2128 30.888 69.2862 30.916 69.3795 30.916C69.4915 30.916 69.5848 30.8867 69.6595 30.828L69.7995 31.184C69.7408 31.232 69.6688 31.268 69.5835 31.292C69.4982 31.316 69.4102 31.328 69.3195 31.328ZM68.2315 29.58V29.18H69.6555V29.58H68.2315ZM71.5268 31.3V30.868L71.4988 30.776V30.02C71.4988 29.8734 71.4548 29.76 71.3668 29.68C71.2788 29.5974 71.1455 29.556 70.9668 29.556C70.8468 29.556 70.7281 29.5747 70.6108 29.612C70.4961 29.6494 70.3988 29.7014 70.3188 29.768L70.1228 29.404C70.2375 29.316 70.3735 29.2507 70.5308 29.208C70.6908 29.1627 70.8561 29.14 71.0268 29.14C71.3361 29.14 71.5748 29.2147 71.7428 29.364C71.9135 29.5107 71.9988 29.7387 71.9988 30.048V31.3H71.5268ZM70.8548 31.328C70.6948 31.328 70.5548 31.3014 70.4348 31.248C70.3148 31.192 70.2215 31.116 70.1548 31.02C70.0908 30.9214 70.0588 30.8107 70.0588 30.688C70.0588 30.568 70.0868 30.46 70.1428 30.364C70.2015 30.268 70.2961 30.192 70.4268 30.136C70.5575 30.08 70.7308 30.052 70.9468 30.052H71.5668V30.384H70.9828C70.8121 30.384 70.6975 30.412 70.6388 30.468C70.5801 30.5214 70.5508 30.588 70.5508 30.668C70.5508 30.7587 70.5868 30.8307 70.6588 30.884C70.7308 30.9374 70.8308 30.964 70.9588 30.964C71.0815 30.964 71.1908 30.936 71.2868 30.88C71.3855 30.824 71.4561 30.7414 71.4988 30.632L71.5828 30.932C71.5348 31.0574 71.4481 31.1547 71.3228 31.224C71.2001 31.2934 71.0441 31.328 70.8548 31.328ZM75.3365 29.14C75.5072 29.14 75.6578 29.1734 75.7885 29.24C75.9218 29.3067 76.0258 29.4094 76.1005 29.548C76.1752 29.684 76.2125 29.86 76.2125 30.076V31.3H75.7125V30.14C75.7125 29.9507 75.6712 29.8094 75.5885 29.716C75.5058 29.6227 75.3872 29.576 75.2325 29.576C75.1232 29.576 75.0258 29.6 74.9405 29.648C74.8578 29.696 74.7925 29.7667 74.7445 29.86C74.6992 29.9534 74.6765 30.072 74.6765 30.216V31.3H74.1765V30.14C74.1765 29.9507 74.1352 29.8094 74.0525 29.716C73.9698 29.6227 73.8512 29.576 73.6965 29.576C73.5872 29.576 73.4898 29.6 73.4045 29.648C73.3218 29.696 73.2565 29.7667 73.2085 29.86C73.1632 29.9534 73.1405 30.072 73.1405 30.216V31.3H72.6405V29.164H73.1165V29.732L73.0325 29.564C73.1045 29.4254 73.2085 29.32 73.3445 29.248C73.4832 29.176 73.6405 29.14 73.8165 29.14C74.0165 29.14 74.1898 29.1894 74.3365 29.288C74.4858 29.3867 74.5845 29.536 74.6325 29.736L74.4365 29.668C74.5058 29.508 74.6205 29.38 74.7805 29.284C74.9405 29.188 75.1258 29.14 75.3365 29.14ZM77.0114 31.328C76.9208 31.328 76.8434 31.2974 76.7794 31.236C76.7154 31.172 76.6834 31.092 76.6834 30.996C76.6834 30.8947 76.7154 30.8147 76.7794 30.756C76.8434 30.6947 76.9208 30.664 77.0114 30.664C77.1021 30.664 77.1794 30.6947 77.2434 30.756C77.3074 30.8147 77.3394 30.8947 77.3394 30.996C77.3394 31.092 77.3074 31.172 77.2434 31.236C77.1794 31.2974 77.1021 31.328 77.0114 31.328ZM78.7728 31.328C78.5488 31.328 78.3488 31.2814 78.1728 31.188C77.9995 31.092 77.8635 30.9614 77.7648 30.796C77.6662 30.6307 77.6168 30.4427 77.6168 30.232C77.6168 30.0187 77.6662 29.8307 77.7648 29.668C77.8635 29.5027 77.9995 29.3734 78.1728 29.28C78.3488 29.1867 78.5488 29.14 78.7728 29.14C78.9808 29.14 79.1635 29.1827 79.3208 29.268C79.4808 29.3507 79.6022 29.4734 79.6848 29.636L79.3008 29.86C79.2368 29.7587 79.1582 29.684 79.0648 29.636C78.9742 29.588 78.8755 29.564 78.7688 29.564C78.6462 29.564 78.5355 29.5907 78.4368 29.644C78.3382 29.6974 78.2608 29.7747 78.2048 29.876C78.1488 29.9747 78.1208 30.0934 78.1208 30.232C78.1208 30.3707 78.1488 30.4907 78.2048 30.592C78.2608 30.6907 78.3382 30.7667 78.4368 30.82C78.5355 30.8734 78.6462 30.9 78.7688 30.9C78.8755 30.9 78.9742 30.876 79.0648 30.828C79.1582 30.78 79.2368 30.7054 79.3008 30.604L79.6848 30.828C79.6022 30.988 79.4808 31.112 79.3208 31.2C79.1635 31.2854 78.9808 31.328 78.7728 31.328ZM81.0458 31.328C80.8271 31.328 80.6325 31.2814 80.4618 31.188C80.2911 31.092 80.1565 30.9614 80.0578 30.796C79.9591 30.6307 79.9098 30.4427 79.9098 30.232C79.9098 30.0187 79.9591 29.8307 80.0578 29.668C80.1565 29.5027 80.2911 29.3734 80.4618 29.28C80.6325 29.1867 80.8271 29.14 81.0458 29.14C81.2671 29.14 81.4631 29.1867 81.6338 29.28C81.8071 29.3734 81.9418 29.5014 82.0378 29.664C82.1365 29.8267 82.1858 30.016 82.1858 30.232C82.1858 30.4427 82.1365 30.6307 82.0378 30.796C81.9418 30.9614 81.8071 31.092 81.6338 31.188C81.4631 31.2814 81.2671 31.328 81.0458 31.328ZM81.0458 30.9C81.1685 30.9 81.2778 30.8734 81.3738 30.82C81.4698 30.7667 81.5445 30.6894 81.5978 30.588C81.6538 30.4867 81.6818 30.368 81.6818 30.232C81.6818 30.0934 81.6538 29.9747 81.5978 29.876C81.5445 29.7747 81.4698 29.6974 81.3738 29.644C81.2778 29.5907 81.1698 29.564 81.0498 29.564C80.9271 29.564 80.8178 29.5907 80.7218 29.644C80.6285 29.6974 80.5538 29.7747 80.4978 29.876C80.4418 29.9747 80.4138 30.0934 80.4138 30.232C80.4138 30.368 80.4418 30.4867 80.4978 30.588C80.5538 30.6894 80.6285 30.7667 80.7218 30.82C80.8178 30.8734 80.9258 30.9 81.0458 30.9ZM85.3599 29.14C85.5306 29.14 85.6813 29.1734 85.8119 29.24C85.9453 29.3067 86.0493 29.4094 86.1239 29.548C86.1986 29.684 86.2359 29.86 86.2359 30.076V31.3H85.7359V30.14C85.7359 29.9507 85.6946 29.8094 85.6119 29.716C85.5293 29.6227 85.4106 29.576 85.2559 29.576C85.1466 29.576 85.0493 29.6 84.9639 29.648C84.8813 29.696 84.8159 29.7667 84.7679 29.86C84.7226 29.9534 84.6999 30.072 84.6999 30.216V31.3H84.1999V30.14C84.1999 29.9507 84.1586 29.8094 84.0759 29.716C83.9933 29.6227 83.8746 29.576 83.7199 29.576C83.6106 29.576 83.5133 29.6 83.4279 29.648C83.3453 29.696 83.2799 29.7667 83.2319 29.86C83.1866 29.9534 83.1639 30.072 83.1639 30.216V31.3H82.6639V29.164H83.1399V29.732L83.0559 29.564C83.1279 29.4254 83.2319 29.32 83.3679 29.248C83.5066 29.176 83.6639 29.14 83.8399 29.14C84.0399 29.14 84.2133 29.1894 84.3599 29.288C84.5093 29.3867 84.6079 29.536 84.6559 29.736L84.4599 29.668C84.5293 29.508 84.6439 29.38 84.8039 29.284C84.9639 29.188 85.1493 29.14 85.3599 29.14Z" fill="#777777"/>
</svg>
