<svg width="81" height="53" viewBox="0 0 81 53" fill="none" xmlns="http://www.w3.org/2000/svg">
<path d="M20.8176 6.71827C20.6092 7.06279 20.3869 7.32119 20.1508 7.49345C19.9285 7.66572 19.6367 7.75185 19.2755 7.75185C18.956 7.75185 18.6087 7.65136 18.2336 7.45038C17.8724 7.23506 17.4556 6.99819 16.9832 6.7398C16.5248 6.4814 15.9969 6.25172 15.3995 6.05075C14.8021 5.83542 14.1214 5.72775 13.3573 5.72775C12.0375 5.72775 11.0511 6.02204 10.3982 6.6106C9.7591 7.18481 9.43957 7.96718 9.43957 8.95769C9.43957 9.58932 9.63407 10.1133 10.0231 10.5296C10.4121 10.9459 10.9191 11.3048 11.5443 11.6062C12.1834 11.9077 12.9058 12.1876 13.7115 12.446C14.5312 12.6901 15.3648 12.97 16.2122 13.2858C17.0597 13.5873 17.8863 13.9461 18.692 14.3624C19.5117 14.7788 20.2341 15.3099 20.8593 15.9559C21.4983 16.6019 22.0124 17.3914 22.4014 18.3245C22.7904 19.2432 22.9849 20.3558 22.9849 21.6621C22.9849 23.112 22.7417 24.4686 22.2555 25.7318C21.7692 26.9951 21.0607 28.1004 20.1299 29.0479C19.213 29.981 18.0738 30.7203 16.7123 31.2658C15.3648 31.7969 13.8296 32.0625 12.1069 32.0625C11.1623 32.0625 10.1967 31.962 9.21034 31.761C8.23786 31.5601 7.29316 31.2801 6.37625 30.9213C5.45934 30.548 4.598 30.1102 3.79223 29.6077C2.98646 29.1053 2.28488 28.5455 1.6875 27.9282L3.77139 24.526C3.9381 24.2819 4.15344 24.081 4.4174 23.9231C4.69525 23.7508 4.99394 23.6647 5.31347 23.6647C5.73025 23.6647 6.14702 23.801 6.5638 24.0738C6.99447 24.3465 7.47377 24.648 8.00169 24.9782C8.5435 25.3083 9.16172 25.6098 9.85635 25.8826C10.551 26.1553 11.3706 26.2917 12.3153 26.2917C13.5935 26.2917 14.5868 26.0046 15.2953 25.4304C16.0038 24.8418 16.3581 23.9159 16.3581 22.6526C16.3581 21.9205 16.1636 21.3248 15.7746 20.8654C15.3856 20.406 14.8716 20.0256 14.2325 19.7241C13.6073 19.4227 12.8919 19.1571 12.0861 18.9274C11.2803 18.6977 10.4537 18.4465 9.60628 18.1738C8.75883 17.8867 7.93222 17.5421 7.12645 17.1402C6.32068 16.7239 5.59827 16.1856 4.95921 15.5252C4.33404 14.8505 3.82696 14.0179 3.43797 13.0274C3.04897 12.0225 2.85448 10.788 2.85448 9.32375C2.85448 8.14662 3.08371 6.99819 3.54216 5.87848C4.00062 4.75877 4.67441 3.76108 5.56353 2.88541C6.45266 2.00974 7.54323 1.31351 8.83524 0.796716C10.1273 0.265572 11.6068 0 13.2739 0C14.2047 0 15.1077 0.0789543 15.983 0.236863C16.8721 0.380415 17.7126 0.602921 18.5045 0.904381C19.2964 1.19149 20.0327 1.54319 20.7134 1.95949C21.408 2.36144 22.0263 2.82081 22.5681 3.3376L20.8176 6.71827Z" fill="white" fill-opacity="0.95"/>
<path d="M42.4738 19.7241L39.6605 11.1325C39.4521 10.587 39.2299 9.9482 38.9937 9.21608C38.7575 8.46961 38.5213 7.66572 38.2852 6.8044C38.0768 7.68007 37.8545 8.49114 37.6183 9.23762C37.3821 9.98409 37.1599 10.6301 36.9515 11.1756L34.1591 19.7241H42.4738ZM53.6643 31.718H48.2045C47.5932 31.718 47.1 31.5744 46.7249 31.2873C46.3498 30.9859 46.065 30.6054 45.8705 30.1461L44.0784 24.6767H32.5336L30.7415 30.1461C30.5887 30.548 30.3108 30.9141 29.9079 31.2442C29.5189 31.5601 29.0327 31.718 28.4492 31.718H22.9477L34.7009 0.344527H41.9111L53.6643 31.718Z" fill="white" fill-opacity="0.95"/>
<path d="M67.9549 25.9687C68.8996 25.9687 69.7401 25.8108 70.4764 25.495C71.2266 25.1648 71.8587 24.6982 72.3727 24.0953C72.8867 23.4924 73.2757 22.7603 73.5397 21.899C73.8175 21.0233 73.9565 20.0328 73.9565 18.9274V0.344527H81V18.9274C81 20.851 80.6944 22.6167 80.0831 24.2245C79.4857 25.8323 78.6244 27.2176 77.4991 28.3804C76.3738 29.5431 75.0053 30.4475 73.3938 31.0935C71.7823 31.7395 69.9693 32.0625 67.9549 32.0625C65.9265 32.0625 64.1066 31.7395 62.4951 31.0935C60.8835 30.4475 59.5151 29.5431 58.3898 28.3804C57.2645 27.2176 56.4032 25.8323 55.8058 24.2245C55.2084 22.6167 54.9097 20.851 54.9097 18.9274V0.344527H61.9533V18.9059C61.9533 20.0112 62.0852 21.0018 62.3492 21.8774C62.627 22.7387 63.023 23.478 63.537 24.0953C64.051 24.6982 64.6762 25.1648 65.4125 25.495C66.1627 25.8108 67.0102 25.9687 67.9549 25.9687Z" fill="white" fill-opacity="0.95"/>
<path d="M4.59773 39.2009C4.57748 39.2346 4.55498 39.2605 4.53023 39.2785C4.50773 39.2942 4.4796 39.3021 4.44585 39.3021C4.4076 39.3021 4.3626 39.283 4.31085 39.2447C4.2591 39.2065 4.19385 39.1649 4.1151 39.1199C4.0386 39.0726 3.94523 39.0299 3.83498 38.9916C3.72698 38.9534 3.59535 38.9342 3.4401 38.9342C3.29385 38.9342 3.16448 38.9545 3.05198 38.995C2.94173 39.0332 2.84835 39.0861 2.77185 39.1536C2.6976 39.2211 2.64135 39.301 2.6031 39.3932C2.56485 39.4832 2.54573 39.5811 2.54573 39.6869C2.54573 39.8219 2.57835 39.9344 2.6436 40.0244C2.7111 40.1121 2.79885 40.1875 2.90685 40.2505C3.0171 40.3135 3.14085 40.3686 3.2781 40.4159C3.4176 40.4609 3.55935 40.5081 3.70335 40.5576C3.8496 40.6071 3.99135 40.6634 4.1286 40.7264C4.2681 40.7871 4.39185 40.8647 4.49985 40.9592C4.6101 41.0537 4.69785 41.1696 4.7631 41.3069C4.8306 41.4441 4.86435 41.6129 4.86435 41.8131C4.86435 42.0246 4.82835 42.2237 4.75635 42.4105C4.68435 42.595 4.5786 42.7559 4.4391 42.8931C4.30185 43.0304 4.13198 43.1384 3.92948 43.2171C3.72923 43.2959 3.50085 43.3353 3.24435 43.3353C2.92935 43.3353 2.6436 43.279 2.3871 43.1665C2.1306 43.0517 1.91123 42.8976 1.72898 42.7041L1.91798 42.3936C1.93598 42.3689 1.95735 42.3486 1.9821 42.3329C2.0091 42.3149 2.03835 42.3059 2.06985 42.3059C2.0991 42.3059 2.13173 42.3182 2.16773 42.343C2.20598 42.3655 2.24873 42.3947 2.29598 42.4307C2.34323 42.4667 2.39723 42.5061 2.45798 42.5489C2.51873 42.5916 2.58735 42.631 2.66385 42.667C2.7426 42.703 2.83148 42.7334 2.93048 42.7581C3.02948 42.7806 3.14085 42.7919 3.2646 42.7919C3.41985 42.7919 3.55823 42.7705 3.67973 42.7277C3.80123 42.685 3.9036 42.6254 3.98685 42.5489C4.07235 42.4701 4.1376 42.3767 4.1826 42.2687C4.2276 42.1607 4.2501 42.0404 4.2501 41.9076C4.2501 41.7614 4.21635 41.6421 4.14885 41.5499C4.0836 41.4554 3.99698 41.3766 3.88898 41.3136C3.78098 41.2506 3.65723 41.1977 3.51773 41.155C3.37823 41.11 3.23648 41.065 3.09248 41.02C2.94848 40.9727 2.80673 40.9187 2.66723 40.858C2.52773 40.7972 2.40398 40.7185 2.29598 40.6217C2.18798 40.525 2.10023 40.4046 2.03273 40.2606C1.96748 40.1144 1.93485 39.9344 1.93485 39.7206C1.93485 39.5496 1.96748 39.3842 2.03273 39.2245C2.10023 39.0647 2.19698 38.923 2.32298 38.7992C2.45123 38.6755 2.6076 38.5765 2.7921 38.5022C2.97885 38.428 3.1926 38.3909 3.43335 38.3909C3.70335 38.3909 3.9486 38.4336 4.1691 38.5191C4.39185 38.6046 4.5876 38.7284 4.75635 38.8904L4.59773 39.2009ZM6.24868 39.8624V43.2812H5.64793V39.8624H6.24868ZM6.37693 38.7891C6.37693 38.8476 6.36456 38.9027 6.33981 38.9545C6.31731 39.004 6.28581 39.049 6.24531 39.0895C6.20706 39.1277 6.16093 39.1581 6.10693 39.1806C6.05518 39.2031 6.00006 39.2144 5.94156 39.2144C5.88306 39.2144 5.82793 39.2031 5.77618 39.1806C5.72668 39.1581 5.68281 39.1277 5.64456 39.0895C5.60631 39.049 5.57593 39.004 5.55343 38.9545C5.53093 38.9027 5.51968 38.8476 5.51968 38.7891C5.51968 38.7306 5.53093 38.6755 5.55343 38.6237C5.57593 38.5697 5.60631 38.5236 5.64456 38.4854C5.68281 38.4449 5.72668 38.4134 5.77618 38.3909C5.82793 38.3684 5.88306 38.3571 5.94156 38.3571C6.00006 38.3571 6.05518 38.3684 6.10693 38.3909C6.16093 38.4134 6.20706 38.4449 6.24531 38.4854C6.28581 38.5236 6.31731 38.5697 6.33981 38.6237C6.36456 38.6755 6.37693 38.7306 6.37693 38.7891ZM9.22701 40.426C9.20001 40.4755 9.15839 40.5002 9.10214 40.5002C9.06839 40.5002 9.03014 40.4879 8.98739 40.4631C8.94464 40.4384 8.89176 40.4114 8.82876 40.3821C8.76801 40.3506 8.69489 40.3225 8.60939 40.2977C8.52389 40.2707 8.42264 40.2572 8.30564 40.2572C8.20439 40.2572 8.11326 40.2707 8.03226 40.2977C7.95126 40.3225 7.88151 40.3574 7.82301 40.4024C7.76676 40.4474 7.72289 40.5002 7.69139 40.561C7.66214 40.6195 7.64751 40.6836 7.64751 40.7534C7.64751 40.8411 7.67226 40.9142 7.72176 40.9727C7.77351 41.0312 7.84101 41.0819 7.92426 41.1246C8.00751 41.1674 8.10201 41.2056 8.20776 41.2394C8.31351 41.2709 8.42151 41.3057 8.53176 41.344C8.64426 41.38 8.75339 41.4205 8.85914 41.4655C8.96489 41.5105 9.05939 41.5667 9.14264 41.6342C9.22589 41.7017 9.29226 41.785 9.34176 41.884C9.39351 41.9807 9.41939 42.0977 9.41939 42.235C9.41939 42.3925 9.39126 42.5387 9.33501 42.6737C9.27876 42.8065 9.19551 42.9224 9.08526 43.0214C8.97501 43.1181 8.84001 43.1946 8.68026 43.2509C8.52051 43.3071 8.33601 43.3353 8.12676 43.3353C7.88826 43.3353 7.67226 43.297 7.47876 43.2205C7.28526 43.1417 7.12101 43.0416 6.98601 42.9201L7.12776 42.6906C7.14576 42.6614 7.16714 42.6389 7.19189 42.6231C7.21664 42.6074 7.24814 42.5995 7.28639 42.5995C7.32689 42.5995 7.36964 42.6152 7.41464 42.6467C7.45964 42.6782 7.51364 42.7131 7.57664 42.7514C7.64189 42.7896 7.72064 42.8245 7.81289 42.856C7.90514 42.8875 8.01989 42.9032 8.15714 42.9032C8.27414 42.9032 8.37651 42.8886 8.46426 42.8594C8.55201 42.8279 8.62514 42.7862 8.68364 42.7345C8.74214 42.6827 8.78489 42.6231 8.81189 42.5556C8.84114 42.4881 8.85576 42.4161 8.85576 42.3396C8.85576 42.2451 8.82989 42.1675 8.77814 42.1067C8.72864 42.0437 8.66226 41.9909 8.57901 41.9481C8.49576 41.9031 8.40014 41.8649 8.29214 41.8334C8.18639 41.7996 8.07726 41.7647 7.96476 41.7287C7.85451 41.6927 7.74539 41.6522 7.63739 41.6072C7.53164 41.56 7.43714 41.5015 7.35389 41.4317C7.27064 41.362 7.20314 41.2765 7.15139 41.1752C7.10189 41.0717 7.07714 40.9469 7.07714 40.8006C7.07714 40.6701 7.10414 40.5452 7.15814 40.426C7.21214 40.3045 7.29089 40.1987 7.39439 40.1087C7.49789 40.0165 7.62501 39.9434 7.77576 39.8894C7.92651 39.8354 8.09864 39.8084 8.29214 39.8084C8.51714 39.8084 8.71851 39.8444 8.89626 39.9164C9.07626 39.9861 9.23151 40.0829 9.36201 40.2066L9.22701 40.426ZM11.2056 43.3353C10.9356 43.3353 10.7274 43.2599 10.5812 43.1091C10.4372 42.9584 10.3652 42.7412 10.3652 42.4577V40.3652H9.95343C9.91743 40.3652 9.88705 40.3551 9.8623 40.3349C9.83755 40.3124 9.82518 40.2786 9.82518 40.2336V39.994L10.3854 39.9231L10.5238 38.8667C10.5306 38.833 10.5452 38.806 10.5677 38.7857C10.5924 38.7632 10.6239 38.752 10.6622 38.752H10.9659V39.9299H11.9548V40.3652H10.9659V42.4172C10.9659 42.5612 11.0008 42.6681 11.0706 42.7379C11.1403 42.8076 11.2303 42.8425 11.3406 42.8425C11.4036 42.8425 11.4576 42.8346 11.5026 42.8189C11.5498 42.8009 11.5903 42.7817 11.6241 42.7615C11.6578 42.7412 11.6859 42.7232 11.7084 42.7075C11.7332 42.6895 11.7546 42.6805 11.7726 42.6805C11.8041 42.6805 11.8322 42.6996 11.8569 42.7379L12.0324 43.0247C11.9289 43.1215 11.8041 43.198 11.6578 43.2542C11.5116 43.3083 11.3608 43.3353 11.2056 43.3353ZM14.8436 41.1989C14.8436 41.0594 14.8233 40.9322 14.7828 40.8175C14.7446 40.7005 14.6872 40.6004 14.6107 40.5171C14.5365 40.4316 14.4453 40.3664 14.3373 40.3214C14.2293 40.2741 14.1067 40.2505 13.9695 40.2505C13.6815 40.2505 13.4531 40.3349 13.2843 40.5036C13.1178 40.6701 13.0143 40.9019 12.9738 41.1989H14.8436ZM15.3296 42.802C15.2553 42.892 15.1665 42.9707 15.063 43.0382C14.9595 43.1035 14.8481 43.1575 14.7288 43.2002C14.6118 43.243 14.4903 43.2745 14.3643 43.2948C14.2383 43.3173 14.1135 43.3285 13.9897 43.3285C13.7535 43.3285 13.5352 43.2891 13.335 43.2104C13.137 43.1294 12.9648 43.0124 12.8186 42.8594C12.6746 42.7041 12.5621 42.5129 12.4811 42.2856C12.4001 42.0584 12.3596 41.7974 12.3596 41.5026C12.3596 41.2641 12.3956 41.0414 12.4676 40.8344C12.5418 40.6274 12.6476 40.4485 12.7848 40.2977C12.9221 40.1447 13.0897 40.0255 13.2877 39.94C13.4857 39.8522 13.7085 39.8084 13.956 39.8084C14.1607 39.8084 14.3497 39.8432 14.523 39.913C14.6985 39.9805 14.8492 40.0795 14.9752 40.21C15.1035 40.3382 15.2036 40.498 15.2756 40.6892C15.3476 40.8782 15.3836 41.0942 15.3836 41.3372C15.3836 41.4317 15.3735 41.4947 15.3532 41.5262C15.333 41.5577 15.2947 41.5735 15.2385 41.5735H12.9536C12.9603 41.7895 12.9896 41.9774 13.0413 42.1371C13.0953 42.2969 13.1696 42.4307 13.2641 42.5387C13.3586 42.6445 13.4711 42.7244 13.6016 42.7784C13.7321 42.8301 13.8783 42.856 14.0403 42.856C14.1911 42.856 14.3205 42.8391 14.4285 42.8054C14.5387 42.7694 14.6332 42.7311 14.712 42.6906C14.7907 42.6501 14.856 42.613 14.9077 42.5792C14.9617 42.5432 15.0078 42.5252 15.0461 42.5252C15.0956 42.5252 15.1338 42.5444 15.1608 42.5826L15.3296 42.802ZM16.1215 43.2812V39.8624H16.4826C16.5681 39.8624 16.621 39.904 16.6413 39.9872L16.6851 40.3382C16.8111 40.183 16.9529 40.0559 17.1104 39.9569C17.2679 39.8579 17.4501 39.8084 17.6571 39.8084C17.8866 39.8084 18.0723 39.8725 18.214 40.0007C18.358 40.129 18.4615 40.3022 18.5245 40.5205C18.574 40.3967 18.637 40.2899 18.7135 40.1999C18.7923 40.1099 18.88 40.0356 18.9768 39.9771C19.0735 39.9186 19.1759 39.8759 19.2839 39.8489C19.3941 39.8219 19.5055 39.8084 19.618 39.8084C19.798 39.8084 19.9578 39.8376 20.0973 39.8961C20.239 39.9524 20.3583 40.0356 20.455 40.1459C20.554 40.2561 20.6294 40.3922 20.6811 40.5542C20.7329 40.714 20.7588 40.8974 20.7588 41.1044V43.2812H20.1546V41.1044C20.1546 40.8366 20.0961 40.6341 19.9791 40.4969C19.8621 40.3574 19.6934 40.2876 19.4729 40.2876C19.3739 40.2876 19.2794 40.3056 19.1894 40.3416C19.1016 40.3754 19.024 40.426 18.9565 40.4935C18.889 40.561 18.835 40.6465 18.7945 40.75C18.7563 40.8512 18.7371 40.9694 18.7371 41.1044V43.2812H18.133V41.1044C18.133 40.8299 18.0779 40.6251 17.9676 40.4901C17.8574 40.3551 17.6965 40.2876 17.485 40.2876C17.3365 40.2876 17.1993 40.3281 17.0733 40.4091C16.9473 40.4879 16.8314 40.5959 16.7256 40.7331V43.2812H16.1215ZM23.5247 41.7422C23.2479 41.7512 23.0117 41.7737 22.8159 41.8097C22.6224 41.8435 22.4638 41.8885 22.34 41.9447C22.2185 42.001 22.1297 42.0674 22.0734 42.1439C22.0194 42.2204 21.9924 42.3059 21.9924 42.4004C21.9924 42.4904 22.007 42.568 22.0363 42.6332C22.0655 42.6985 22.1049 42.7525 22.1544 42.7952C22.2062 42.8357 22.2658 42.8661 22.3333 42.8864C22.403 42.9044 22.4773 42.9134 22.556 42.9134C22.6618 42.9134 22.7585 42.9032 22.8463 42.883C22.934 42.8605 23.0162 42.829 23.0927 42.7885C23.1714 42.748 23.2457 42.6996 23.3154 42.6434C23.3874 42.5871 23.4572 42.523 23.5247 42.451V41.7422ZM21.584 40.345C21.773 40.1627 21.9767 40.0266 22.1949 39.9366C22.4132 39.8466 22.655 39.8016 22.9205 39.8016C23.1118 39.8016 23.2817 39.8331 23.4302 39.8961C23.5787 39.9591 23.7035 40.0469 23.8048 40.1594C23.906 40.2719 23.9825 40.408 24.0343 40.5677C24.086 40.7275 24.1119 40.903 24.1119 41.0942V43.2812H23.8453C23.7868 43.2812 23.7418 43.2722 23.7103 43.2542C23.6788 43.234 23.654 43.1957 23.636 43.1395L23.5685 42.8155C23.4785 42.8987 23.3908 42.973 23.3053 43.0382C23.2198 43.1012 23.1298 43.1552 23.0353 43.2002C22.9408 43.243 22.8395 43.2756 22.7315 43.2981C22.6258 43.3229 22.5077 43.3353 22.3772 43.3353C22.2444 43.3353 22.1195 43.3173 22.0025 43.2812C21.8855 43.243 21.7832 43.1867 21.6954 43.1125C21.6099 43.0382 21.5413 42.9449 21.4895 42.8324C21.44 42.7176 21.4153 42.5826 21.4153 42.4274C21.4153 42.2924 21.4524 42.163 21.5267 42.0392C21.6009 41.9132 21.7213 41.8019 21.8878 41.7051C22.0543 41.6084 22.2714 41.5296 22.5392 41.4689C22.8069 41.4059 23.1354 41.3699 23.5247 41.3609V41.0942C23.5247 40.8287 23.4673 40.6285 23.3525 40.4935C23.2378 40.3562 23.0702 40.2876 22.8497 40.2876C22.7012 40.2876 22.5763 40.3067 22.475 40.345C22.376 40.381 22.2894 40.4226 22.2152 40.4699C22.1432 40.5149 22.0802 40.5565 22.0262 40.5947C21.9744 40.6307 21.9227 40.6487 21.8709 40.6487C21.8304 40.6487 21.7955 40.6386 21.7663 40.6184C21.737 40.5959 21.7123 40.5689 21.692 40.5374L21.584 40.345ZM28.9816 40.6757C28.8691 40.525 28.7476 40.4204 28.6171 40.3619C28.4866 40.3011 28.3403 40.2707 28.1783 40.2707C27.8611 40.2707 27.6169 40.3844 27.4459 40.6116C27.2749 40.8389 27.1894 41.1629 27.1894 41.5836C27.1894 41.8064 27.2086 41.9976 27.2468 42.1574C27.2851 42.3149 27.3413 42.4454 27.4156 42.5489C27.4898 42.6501 27.5809 42.7244 27.6889 42.7716C27.7969 42.8189 27.9196 42.8425 28.0568 42.8425C28.2548 42.8425 28.4269 42.7975 28.5732 42.7075C28.7217 42.6175 28.8578 42.4904 28.9816 42.3261V40.6757ZM29.5823 38.3099V43.2812H29.2246C29.1391 43.2812 29.0851 43.2396 29.0626 43.1564L29.0086 42.7412C28.8623 42.9167 28.6958 43.0585 28.5091 43.1665C28.3223 43.2745 28.1063 43.3285 27.8611 43.3285C27.6653 43.3285 27.4876 43.2914 27.3278 43.2171C27.1681 43.1406 27.0319 43.0292 26.9194 42.883C26.8069 42.7367 26.7203 42.5545 26.6596 42.3362C26.5988 42.118 26.5684 41.8671 26.5684 41.5836C26.5684 41.3316 26.6022 41.0976 26.6697 40.8816C26.7372 40.6634 26.8339 40.4744 26.9599 40.3146C27.0859 40.1549 27.2401 40.03 27.4223 39.94C27.6068 39.8477 27.8138 39.8016 28.0433 39.8016C28.2526 39.8016 28.4314 39.8376 28.5799 39.9096C28.7307 39.9794 28.8646 40.0772 28.9816 40.2032V38.3099H29.5823ZM32.8194 41.1989C32.8194 41.0594 32.7992 40.9322 32.7587 40.8175C32.7204 40.7005 32.663 40.6004 32.5865 40.5171C32.5123 40.4316 32.4212 40.3664 32.3132 40.3214C32.2052 40.2741 32.0825 40.2505 31.9453 40.2505C31.6573 40.2505 31.4289 40.3349 31.2602 40.5036C31.0937 40.6701 30.9902 40.9019 30.9497 41.1989H32.8194ZM33.3054 42.802C33.2312 42.892 33.1423 42.9707 33.0388 43.0382C32.9353 43.1035 32.8239 43.1575 32.7047 43.2002C32.5877 43.243 32.4662 43.2745 32.3402 43.2948C32.2142 43.3173 32.0893 43.3285 31.9655 43.3285C31.7293 43.3285 31.511 43.2891 31.3108 43.2104C31.1128 43.1294 30.9407 43.0124 30.7944 42.8594C30.6504 42.7041 30.5379 42.5129 30.4569 42.2856C30.3759 42.0584 30.3354 41.7974 30.3354 41.5026C30.3354 41.2641 30.3714 41.0414 30.4434 40.8344C30.5177 40.6274 30.6234 40.4485 30.7607 40.2977C30.8979 40.1447 31.0655 40.0255 31.2635 39.94C31.4615 39.8522 31.6843 39.8084 31.9318 39.8084C32.1365 39.8084 32.3255 39.8432 32.4988 39.913C32.6743 39.9805 32.825 40.0795 32.951 40.21C33.0793 40.3382 33.1794 40.498 33.2514 40.6892C33.3234 40.8782 33.3594 41.0942 33.3594 41.3372C33.3594 41.4317 33.3493 41.4947 33.329 41.5262C33.3088 41.5577 33.2705 41.5735 33.2143 41.5735H30.9294C30.9362 41.7895 30.9654 41.9774 31.0172 42.1371C31.0712 42.2969 31.1454 42.4307 31.2399 42.5387C31.3344 42.6445 31.4469 42.7244 31.5774 42.7784C31.7079 42.8301 31.8542 42.856 32.0162 42.856C32.1669 42.856 32.2963 42.8391 32.4043 42.8054C32.5145 42.7694 32.609 42.7311 32.6878 42.6906C32.7665 42.6501 32.8318 42.613 32.8835 42.5792C32.9375 42.5432 32.9837 42.5252 33.0219 42.5252C33.0714 42.5252 33.1097 42.5444 33.1367 42.5826L33.3054 42.802ZM38.3104 41.4857L37.551 39.5181C37.5285 39.4596 37.5049 39.3921 37.4801 39.3156C37.4554 39.2369 37.4318 39.1536 37.4093 39.0659C37.362 39.2481 37.3136 39.4 37.2641 39.5215L36.5048 41.4857H38.3104ZM39.6739 43.2812H39.1676C39.1091 43.2812 39.0619 43.2666 39.0259 43.2374C38.9899 43.2081 38.9629 43.171 38.9449 43.126L38.4926 41.9582H36.3225L35.8703 43.126C35.8568 43.1665 35.8309 43.2025 35.7926 43.234C35.7544 43.2655 35.7071 43.2812 35.6509 43.2812H35.1446L37.0785 38.4449H37.74L39.6739 43.2812ZM42.3234 40.6757C42.2109 40.525 42.0894 40.4204 41.9589 40.3619C41.8284 40.3011 41.6821 40.2707 41.5201 40.2707C41.2029 40.2707 40.9587 40.3844 40.7877 40.6116C40.6167 40.8389 40.5312 41.1629 40.5312 41.5836C40.5312 41.8064 40.5504 41.9976 40.5886 42.1574C40.6269 42.3149 40.6831 42.4454 40.7574 42.5489C40.8316 42.6501 40.9227 42.7244 41.0307 42.7716C41.1387 42.8189 41.2614 42.8425 41.3986 42.8425C41.5966 42.8425 41.7687 42.7975 41.915 42.7075C42.0635 42.6175 42.1996 42.4904 42.3234 42.3261V40.6757ZM42.9241 38.3099V43.2812H42.5664C42.4809 43.2812 42.4269 43.2396 42.4044 43.1564L42.3504 42.7412C42.2041 42.9167 42.0376 43.0585 41.8509 43.1665C41.6641 43.2745 41.4481 43.3285 41.2029 43.3285C41.0071 43.3285 40.8294 43.2914 40.6696 43.2171C40.5099 43.1406 40.3737 43.0292 40.2612 42.883C40.1487 42.7367 40.0621 42.5545 40.0014 42.3362C39.9406 42.118 39.9102 41.8671 39.9102 41.5836C39.9102 41.3316 39.944 41.0976 40.0115 40.8816C40.079 40.6634 40.1757 40.4744 40.3017 40.3146C40.4277 40.1549 40.5819 40.03 40.7641 39.94C40.9486 39.8477 41.1556 39.8016 41.3851 39.8016C41.5944 39.8016 41.7732 39.8376 41.9217 39.9096C42.0725 39.9794 42.2064 40.0772 42.3234 40.2032V38.3099H42.9241ZM43.873 43.2812V39.8624H44.2341C44.3196 39.8624 44.3725 39.904 44.3927 39.9872L44.4366 40.3382C44.5626 40.183 44.7043 40.0559 44.8618 39.9569C45.0193 39.8579 45.2016 39.8084 45.4086 39.8084C45.6381 39.8084 45.8237 39.8725 45.9655 40.0007C46.1095 40.129 46.213 40.3022 46.276 40.5205C46.3255 40.3967 46.3885 40.2899 46.465 40.1999C46.5437 40.1099 46.6315 40.0356 46.7282 39.9771C46.825 39.9186 46.9273 39.8759 47.0353 39.8489C47.1456 39.8219 47.257 39.8084 47.3695 39.8084C47.5495 39.8084 47.7092 39.8376 47.8487 39.8961C47.9905 39.9524 48.1097 40.0356 48.2065 40.1459C48.3055 40.2561 48.3808 40.3922 48.4326 40.5542C48.4843 40.714 48.5102 40.8974 48.5102 41.1044V43.2812H47.9061V41.1044C47.9061 40.8366 47.8476 40.6341 47.7306 40.4969C47.6136 40.3574 47.4448 40.2876 47.2243 40.2876C47.1253 40.2876 47.0308 40.3056 46.9408 40.3416C46.8531 40.3754 46.7755 40.426 46.708 40.4935C46.6405 40.561 46.5865 40.6465 46.546 40.75C46.5077 40.8512 46.4886 40.9694 46.4886 41.1044V43.2812H45.8845V41.1044C45.8845 40.8299 45.8293 40.6251 45.7191 40.4901C45.6088 40.3551 45.448 40.2876 45.2365 40.2876C45.088 40.2876 44.9507 40.3281 44.8247 40.4091C44.6987 40.4879 44.5828 40.5959 44.4771 40.7331V43.2812H43.873ZM50.0578 39.8624V43.2812H49.457V39.8624H50.0578ZM50.186 38.7891C50.186 38.8476 50.1736 38.9027 50.1489 38.9545C50.1264 39.004 50.0949 39.049 50.0544 39.0895C50.0161 39.1277 49.97 39.1581 49.916 39.1806C49.8643 39.2031 49.8091 39.2144 49.7506 39.2144C49.6921 39.2144 49.637 39.2031 49.5853 39.1806C49.5358 39.1581 49.4919 39.1277 49.4536 39.0895C49.4154 39.049 49.385 39.004 49.3625 38.9545C49.34 38.9027 49.3288 38.8476 49.3288 38.7891C49.3288 38.7306 49.34 38.6755 49.3625 38.6237C49.385 38.5697 49.4154 38.5236 49.4536 38.4854C49.4919 38.4449 49.5358 38.4134 49.5853 38.3909C49.637 38.3684 49.6921 38.3571 49.7506 38.3571C49.8091 38.3571 49.8643 38.3684 49.916 38.3909C49.97 38.4134 50.0161 38.4449 50.0544 38.4854C50.0949 38.5236 50.1264 38.5697 50.1489 38.6237C50.1736 38.6755 50.186 38.7306 50.186 38.7891ZM51.6118 40.3585C51.6861 40.2752 51.7648 40.1999 51.8481 40.1324C51.9313 40.0649 52.0191 40.0075 52.1113 39.9602C52.2058 39.9107 52.3048 39.8736 52.4083 39.8489C52.5141 39.8219 52.6277 39.8084 52.7492 39.8084C52.936 39.8084 53.1002 39.8399 53.242 39.9029C53.386 39.9636 53.5052 40.0514 53.5997 40.1661C53.6965 40.2786 53.7696 40.4147 53.8191 40.5745C53.8686 40.7342 53.8933 40.9109 53.8933 41.1044V43.2812H53.2892V41.1044C53.2892 40.8456 53.2296 40.6454 53.1103 40.5036C52.9933 40.3596 52.8145 40.2876 52.5737 40.2876C52.396 40.2876 52.2295 40.3304 52.0742 40.4159C51.9212 40.5014 51.7795 40.6172 51.649 40.7635V43.2812H51.0448V39.8624H51.406C51.4915 39.8624 51.5443 39.904 51.5646 39.9872L51.6118 40.3585ZM55.4433 39.8624V43.2812H54.8425V39.8624H55.4433ZM55.5715 38.7891C55.5715 38.8476 55.5591 38.9027 55.5344 38.9545C55.5119 39.004 55.4804 39.049 55.4399 39.0895C55.4016 39.1277 55.3555 39.1581 55.3015 39.1806C55.2498 39.2031 55.1946 39.2144 55.1361 39.2144C55.0776 39.2144 55.0225 39.2031 54.9708 39.1806C54.9213 39.1581 54.8774 39.1277 54.8391 39.0895C54.8009 39.049 54.7705 39.004 54.748 38.9545C54.7255 38.9027 54.7143 38.8476 54.7143 38.7891C54.7143 38.7306 54.7255 38.6755 54.748 38.6237C54.7705 38.5697 54.8009 38.5236 54.8391 38.4854C54.8774 38.4449 54.9213 38.4134 54.9708 38.3909C55.0225 38.3684 55.0776 38.3571 55.1361 38.3571C55.1946 38.3571 55.2498 38.3684 55.3015 38.3909C55.3555 38.4134 55.4016 38.4449 55.4399 38.4854C55.4804 38.5236 55.5119 38.5697 55.5344 38.6237C55.5591 38.6755 55.5715 38.7306 55.5715 38.7891ZM58.4216 40.426C58.3946 40.4755 58.353 40.5002 58.2967 40.5002C58.263 40.5002 58.2247 40.4879 58.182 40.4631C58.1392 40.4384 58.0863 40.4114 58.0233 40.3821C57.9626 40.3506 57.8895 40.3225 57.804 40.2977C57.7185 40.2707 57.6172 40.2572 57.5002 40.2572C57.399 40.2572 57.3078 40.2707 57.2268 40.2977C57.1458 40.3225 57.0761 40.3574 57.0176 40.4024C56.9613 40.4474 56.9175 40.5002 56.886 40.561C56.8567 40.6195 56.8421 40.6836 56.8421 40.7534C56.8421 40.8411 56.8668 40.9142 56.9163 40.9727C56.9681 41.0312 57.0356 41.0819 57.1188 41.1246C57.2021 41.1674 57.2966 41.2056 57.4023 41.2394C57.5081 41.2709 57.6161 41.3057 57.7263 41.344C57.8388 41.38 57.948 41.4205 58.0537 41.4655C58.1595 41.5105 58.254 41.5667 58.3372 41.6342C58.4205 41.7017 58.4868 41.785 58.5363 41.884C58.5881 41.9807 58.614 42.0977 58.614 42.235C58.614 42.3925 58.5858 42.5387 58.5296 42.6737C58.4733 42.8065 58.3901 42.9224 58.2798 43.0214C58.1696 43.1181 58.0346 43.1946 57.8748 43.2509C57.7151 43.3071 57.5306 43.3353 57.3213 43.3353C57.0828 43.3353 56.8668 43.297 56.6733 43.2205C56.4798 43.1417 56.3156 43.0416 56.1806 42.9201L56.3223 42.6906C56.3403 42.6614 56.3617 42.6389 56.3865 42.6231C56.4112 42.6074 56.4427 42.5995 56.481 42.5995C56.5215 42.5995 56.5642 42.6152 56.6092 42.6467C56.6542 42.6782 56.7082 42.7131 56.7712 42.7514C56.8365 42.7896 56.9152 42.8245 57.0075 42.856C57.0997 42.8875 57.2145 42.9032 57.3517 42.9032C57.4687 42.9032 57.5711 42.8886 57.6588 42.8594C57.7466 42.8279 57.8197 42.7862 57.8782 42.7345C57.9367 42.6827 57.9795 42.6231 58.0065 42.5556C58.0357 42.4881 58.0503 42.4161 58.0503 42.3396C58.0503 42.2451 58.0245 42.1675 57.9727 42.1067C57.9232 42.0437 57.8568 41.9909 57.7736 41.9481C57.6903 41.9031 57.5947 41.8649 57.4867 41.8334C57.381 41.7996 57.2718 41.7647 57.1593 41.7287C57.0491 41.6927 56.94 41.6522 56.832 41.6072C56.7262 41.56 56.6317 41.5015 56.5485 41.4317C56.4652 41.362 56.3977 41.2765 56.346 41.1752C56.2965 41.0717 56.2717 40.9469 56.2717 40.8006C56.2717 40.6701 56.2987 40.5452 56.3527 40.426C56.4067 40.3045 56.4855 40.1987 56.589 40.1087C56.6925 40.0165 56.8196 39.9434 56.9703 39.8894C57.1211 39.8354 57.2932 39.8084 57.4867 39.8084C57.7117 39.8084 57.9131 39.8444 58.0908 39.9164C58.2708 39.9861 58.4261 40.0829 58.5566 40.2066L58.4216 40.426ZM60.4001 43.3353C60.1301 43.3353 59.922 43.2599 59.7758 43.1091C59.6318 42.9584 59.5598 42.7412 59.5598 42.4577V40.3652H59.148C59.112 40.3652 59.0816 40.3551 59.0569 40.3349C59.0321 40.3124 59.0198 40.2786 59.0198 40.2336V39.994L59.58 39.9231L59.7184 38.8667C59.7251 38.833 59.7398 38.806 59.7623 38.7857C59.787 38.7632 59.8185 38.752 59.8568 38.752H60.1605V39.9299H61.1494V40.3652H60.1605V42.4172C60.1605 42.5612 60.1954 42.6681 60.2651 42.7379C60.3349 42.8076 60.4249 42.8425 60.5351 42.8425C60.5981 42.8425 60.6521 42.8346 60.6971 42.8189C60.7444 42.8009 60.7849 42.7817 60.8186 42.7615C60.8524 42.7412 60.8805 42.7232 60.903 42.7075C60.9278 42.6895 60.9491 42.6805 60.9671 42.6805C60.9986 42.6805 61.0268 42.6996 61.0515 42.7379L61.227 43.0247C61.1235 43.1215 60.9986 43.198 60.8524 43.2542C60.7061 43.3083 60.5554 43.3353 60.4001 43.3353ZM62.3401 40.5475C62.4481 40.3135 62.5808 40.1312 62.7383 40.0007C62.8958 39.868 63.0882 39.8016 63.3154 39.8016C63.3874 39.8016 63.4561 39.8095 63.5213 39.8252C63.5888 39.841 63.6484 39.8657 63.7002 39.8995L63.6563 40.3484C63.6428 40.4046 63.6091 40.4327 63.5551 40.4327C63.5236 40.4327 63.4774 40.426 63.4167 40.4125C63.3559 40.399 63.2873 40.3922 63.2108 40.3922C63.1028 40.3922 63.0061 40.408 62.9206 40.4395C62.8373 40.471 62.7619 40.5182 62.6944 40.5812C62.6292 40.642 62.5696 40.7185 62.5156 40.8107C62.4638 40.9007 62.4166 41.0042 62.3738 41.1212V43.2812H61.7697V39.8624H62.1139C62.1792 39.8624 62.2242 39.8747 62.2489 39.8995C62.2737 39.9242 62.2906 39.967 62.2996 40.0277L62.3401 40.5475ZM66.0286 41.7422C65.7518 41.7512 65.5156 41.7737 65.3198 41.8097C65.1263 41.8435 64.9677 41.8885 64.844 41.9447C64.7225 42.001 64.6336 42.0674 64.5773 42.1439C64.5233 42.2204 64.4963 42.3059 64.4963 42.4004C64.4963 42.4904 64.511 42.568 64.5402 42.6332C64.5695 42.6985 64.6088 42.7525 64.6583 42.7952C64.7101 42.8357 64.7697 42.8661 64.8372 42.8864C64.907 42.9044 64.9812 42.9134 65.06 42.9134C65.1657 42.9134 65.2625 42.9032 65.3502 42.883C65.438 42.8605 65.5201 42.829 65.5966 42.7885C65.6753 42.748 65.7496 42.6996 65.8193 42.6434C65.8913 42.5871 65.9611 42.523 66.0286 42.451V41.7422ZM64.088 40.345C64.277 40.1627 64.4806 40.0266 64.6988 39.9366C64.9171 39.8466 65.159 39.8016 65.4245 39.8016C65.6157 39.8016 65.7856 39.8331 65.9341 39.8961C66.0826 39.9591 66.2075 40.0469 66.3087 40.1594C66.41 40.2719 66.4865 40.408 66.5382 40.5677C66.59 40.7275 66.6158 40.903 66.6158 41.0942V43.2812H66.3492C66.2907 43.2812 66.2457 43.2722 66.2142 43.2542C66.1827 43.234 66.158 43.1957 66.14 43.1395L66.0725 42.8155C65.9825 42.8987 65.8947 42.973 65.8092 43.0382C65.7237 43.1012 65.6337 43.1552 65.5392 43.2002C65.4447 43.243 65.3435 43.2756 65.2355 43.2981C65.1297 43.3229 65.0116 43.3353 64.8811 43.3353C64.7483 43.3353 64.6235 43.3173 64.5065 43.2812C64.3895 43.243 64.2871 43.1867 64.1993 43.1125C64.1138 43.0382 64.0452 42.9449 63.9935 42.8324C63.944 42.7176 63.9192 42.5826 63.9192 42.4274C63.9192 42.2924 63.9563 42.163 64.0306 42.0392C64.1048 41.9132 64.2252 41.8019 64.3917 41.7051C64.5582 41.6084 64.7753 41.5296 65.0431 41.4689C65.3108 41.4059 65.6393 41.3699 66.0286 41.3609V41.0942C66.0286 40.8287 65.9712 40.6285 65.8565 40.4935C65.7417 40.3562 65.5741 40.2876 65.3536 40.2876C65.2051 40.2876 65.0802 40.3067 64.979 40.345C64.88 40.381 64.7933 40.4226 64.7191 40.4699C64.6471 40.5149 64.5841 40.5565 64.5301 40.5947C64.4783 40.6307 64.4266 40.6487 64.3748 40.6487C64.3343 40.6487 64.2995 40.6386 64.2702 40.6184C64.241 40.5959 64.2162 40.5689 64.196 40.5374L64.088 40.345ZM69.9103 40.4699C69.8923 40.4946 69.8743 40.5137 69.8563 40.5272C69.8383 40.5407 69.8136 40.5475 69.7821 40.5475C69.7483 40.5475 69.7112 40.534 69.6707 40.507C69.6302 40.4777 69.5796 40.4462 69.5188 40.4125C69.4603 40.3787 69.3872 40.3484 69.2994 40.3214C69.2139 40.2921 69.1082 40.2775 68.9822 40.2775C68.8134 40.2775 68.6649 40.3079 68.5367 40.3686C68.4084 40.4271 68.3004 40.5126 68.2127 40.6251C68.1272 40.7376 68.0619 40.8737 68.0169 41.0335C67.9742 41.1932 67.9528 41.3721 67.9528 41.5701C67.9528 41.7771 67.9764 41.9616 68.0237 42.1236C68.0709 42.2834 68.1373 42.4184 68.2228 42.5286C68.3106 42.6366 68.4152 42.7199 68.5367 42.7784C68.6604 42.8346 68.7988 42.8627 68.9518 42.8627C69.0981 42.8627 69.2184 42.8459 69.3129 42.8121C69.4074 42.7761 69.4851 42.7367 69.5458 42.694C69.6088 42.6512 69.6606 42.613 69.7011 42.5792C69.7438 42.5432 69.7854 42.5252 69.8259 42.5252C69.8754 42.5252 69.9137 42.5444 69.9407 42.5826L70.1094 42.802C70.0352 42.8942 69.9508 42.973 69.8563 43.0382C69.7618 43.1035 69.6594 43.1586 69.5492 43.2036C69.4412 43.2464 69.3276 43.2779 69.2083 43.2981C69.0891 43.3184 68.9676 43.3285 68.8438 43.3285C68.6301 43.3285 68.4309 43.2891 68.2464 43.2104C68.0642 43.1316 67.9056 43.018 67.7706 42.8695C67.6356 42.7187 67.5298 42.5342 67.4533 42.316C67.3768 42.0977 67.3386 41.8491 67.3386 41.5701C67.3386 41.3159 67.3734 41.0807 67.4432 40.8647C67.5152 40.6487 67.6187 40.4631 67.7537 40.3079C67.8909 40.1504 68.0586 40.0277 68.2566 39.94C68.4568 39.8522 68.6863 39.8084 68.9451 39.8084C69.1858 39.8084 69.3973 39.8477 69.5796 39.9265C69.7641 40.003 69.9272 40.1121 70.0689 40.2539L69.9103 40.4699ZM71.3888 39.8624V43.2812H70.7881V39.8624H71.3888ZM71.5171 38.7891C71.5171 38.8476 71.5047 38.9027 71.4799 38.9545C71.4574 39.004 71.4259 39.049 71.3854 39.0895C71.3472 39.1277 71.3011 39.1581 71.2471 39.1806C71.1953 39.2031 71.1402 39.2144 71.0817 39.2144C71.0232 39.2144 70.9681 39.2031 70.9163 39.1806C70.8668 39.1581 70.8229 39.1277 70.7847 39.0895C70.7464 39.049 70.7161 39.004 70.6936 38.9545C70.6711 38.9027 70.6598 38.8476 70.6598 38.7891C70.6598 38.7306 70.6711 38.6755 70.6936 38.6237C70.7161 38.5697 70.7464 38.5236 70.7847 38.4854C70.8229 38.4449 70.8668 38.4134 70.9163 38.3909C70.9681 38.3684 71.0232 38.3571 71.0817 38.3571C71.1402 38.3571 71.1953 38.3684 71.2471 38.3909C71.3011 38.4134 71.3472 38.4449 71.3854 38.4854C71.4259 38.5236 71.4574 38.5697 71.4799 38.6237C71.5047 38.6755 71.5171 38.7306 71.5171 38.7891ZM73.817 39.8084C74.0668 39.8084 74.2918 39.85 74.492 39.9332C74.6923 40.0165 74.8633 40.1346 75.005 40.2876C75.1468 40.4406 75.2548 40.6262 75.329 40.8445C75.4055 41.0605 75.4438 41.3024 75.4438 41.5701C75.4438 41.8401 75.4055 42.0831 75.329 42.2991C75.2548 42.5151 75.1468 42.6996 75.005 42.8526C74.8633 43.0056 74.6923 43.1237 74.492 43.207C74.2918 43.288 74.0668 43.3285 73.817 43.3285C73.565 43.3285 73.3378 43.288 73.1353 43.207C72.935 43.1237 72.764 43.0056 72.6223 42.8526C72.4805 42.6996 72.3714 42.5151 72.2949 42.2991C72.2206 42.0831 72.1835 41.8401 72.1835 41.5701C72.1835 41.3024 72.2206 41.0605 72.2949 40.8445C72.3714 40.6262 72.4805 40.4406 72.6223 40.2876C72.764 40.1346 72.935 40.0165 73.1353 39.9332C73.3378 39.85 73.565 39.8084 73.817 39.8084ZM73.817 42.8594C74.1545 42.8594 74.4065 42.7469 74.573 42.5219C74.7395 42.2946 74.8228 41.9785 74.8228 41.5735C74.8228 41.1662 74.7395 40.849 74.573 40.6217C74.4065 40.3945 74.1545 40.2809 73.817 40.2809C73.646 40.2809 73.4964 40.3101 73.3681 40.3686C73.2421 40.4271 73.1364 40.5115 73.0509 40.6217C72.9676 40.732 72.9046 40.8681 72.8619 41.0301C72.8214 41.1899 72.8011 41.371 72.8011 41.5735C72.8011 41.9785 72.8844 42.2946 73.0509 42.5219C73.2196 42.7469 73.475 42.8594 73.817 42.8594ZM74.8025 38.3909L74.0161 39.2616C73.9846 39.2954 73.9531 39.3201 73.9216 39.3359C73.8924 39.3494 73.8541 39.3561 73.8069 39.3561H73.4491L73.9486 38.5394C73.9801 38.4876 74.0139 38.4505 74.0499 38.428C74.0881 38.4032 74.1433 38.3909 74.2153 38.3909H74.8025ZM76.7727 40.3585C76.847 40.2752 76.9257 40.1999 77.009 40.1324C77.0922 40.0649 77.18 40.0075 77.2722 39.9602C77.3667 39.9107 77.4657 39.8736 77.5692 39.8489C77.675 39.8219 77.7886 39.8084 77.9101 39.8084C78.0969 39.8084 78.2611 39.8399 78.4029 39.9029C78.5469 39.9636 78.6661 40.0514 78.7606 40.1661C78.8574 40.2786 78.9305 40.4147 78.98 40.5745C79.0295 40.7342 79.0542 40.9109 79.0542 41.1044V43.2812H78.4501V41.1044C78.4501 40.8456 78.3905 40.6454 78.2712 40.5036C78.1542 40.3596 77.9754 40.2876 77.7346 40.2876C77.5569 40.2876 77.3904 40.3304 77.2351 40.4159C77.0821 40.5014 76.9404 40.6172 76.8099 40.7635V43.2812H76.2057V39.8624H76.5669C76.6524 39.8624 76.7052 39.904 76.7255 39.9872L76.7727 40.3585ZM25.834 48.6757C25.7215 48.525 25.6 48.4204 25.4695 48.3619C25.339 48.3011 25.1927 48.2707 25.0307 48.2707C24.7135 48.2707 24.4694 48.3844 24.2984 48.6116C24.1274 48.8389 24.0419 49.1629 24.0419 49.5836C24.0419 49.8064 24.061 49.9976 24.0992 50.1574C24.1375 50.3149 24.1937 50.4454 24.268 50.5489C24.3422 50.6501 24.4334 50.7244 24.5414 50.7716C24.6494 50.8189 24.772 50.8425 24.9092 50.8425C25.1072 50.8425 25.2794 50.7975 25.4256 50.7075C25.5741 50.6175 25.7102 50.4904 25.834 50.3261V48.6757ZM26.4347 46.3099V51.2812H26.077C25.9915 51.2812 25.9375 51.2396 25.915 51.1564L25.861 50.7412C25.7147 50.9167 25.5482 51.0585 25.3615 51.1665C25.1747 51.2745 24.9587 51.3285 24.7135 51.3285C24.5177 51.3285 24.34 51.2914 24.1802 51.2171C24.0205 51.1406 23.8844 51.0292 23.7719 50.883C23.6594 50.7367 23.5727 50.5545 23.512 50.3362C23.4512 50.118 23.4209 49.8671 23.4209 49.5836C23.4209 49.3316 23.4546 49.0976 23.5221 48.8816C23.5896 48.6634 23.6864 48.4744 23.8124 48.3146C23.9384 48.1549 24.0925 48.03 24.2747 47.94C24.4592 47.8477 24.6662 47.8016 24.8957 47.8016C25.105 47.8016 25.2839 47.8376 25.4324 47.9096C25.5831 47.9794 25.717 48.0772 25.834 48.2032V46.3099H26.4347ZM29.6718 49.1989C29.6718 49.0594 29.6516 48.9322 29.6111 48.8175C29.5728 48.7005 29.5155 48.6004 29.439 48.5171C29.3647 48.4316 29.2736 48.3664 29.1656 48.3214C29.0576 48.2741 28.935 48.2505 28.7977 48.2505C28.5097 48.2505 28.2813 48.3349 28.1126 48.5036C27.9461 48.6701 27.8426 48.9019 27.8021 49.1989H29.6718ZM30.1578 50.802C30.0836 50.892 29.9947 50.9707 29.8912 51.0382C29.7877 51.1035 29.6763 51.1575 29.5571 51.2002C29.4401 51.243 29.3186 51.2745 29.1926 51.2948C29.0666 51.3173 28.9417 51.3285 28.818 51.3285C28.5817 51.3285 28.3635 51.2891 28.1632 51.2104C27.9652 51.1294 27.7931 51.0124 27.6468 50.8594C27.5028 50.7041 27.3903 50.5129 27.3093 50.2856C27.2283 50.0584 27.1878 49.7974 27.1878 49.5026C27.1878 49.2641 27.2238 49.0414 27.2958 48.8344C27.3701 48.6274 27.4758 48.4485 27.6131 48.2977C27.7503 48.1447 27.918 48.0255 28.116 47.94C28.314 47.8522 28.5367 47.8084 28.7842 47.8084C28.989 47.8084 29.178 47.8432 29.3512 47.913C29.5267 47.9805 29.6775 48.0795 29.8035 48.21C29.9317 48.3382 30.0318 48.498 30.1038 48.6892C30.1758 48.8782 30.2118 49.0942 30.2118 49.3372C30.2118 49.4317 30.2017 49.4947 30.1815 49.5262C30.1612 49.5577 30.123 49.5735 30.0667 49.5735H27.7818C27.7886 49.7895 27.8178 49.9774 27.8696 50.1371C27.9236 50.2969 27.9978 50.4307 28.0923 50.5387C28.1868 50.6445 28.2993 50.7244 28.4298 50.7784C28.5603 50.8301 28.7066 50.856 28.8686 50.856C29.0193 50.856 29.1487 50.8391 29.2567 50.8054C29.367 50.7694 29.4615 50.7311 29.5402 50.6906C29.619 50.6501 29.6842 50.613 29.736 50.5792C29.79 50.5432 29.8361 50.5252 29.8743 50.5252C29.9238 50.5252 29.9621 50.5444 29.9891 50.5826L30.1578 50.802ZM34.6849 50.7615C34.8852 50.7615 35.0641 50.7277 35.2216 50.6602C35.3791 50.5927 35.5118 50.4982 35.6198 50.3767C35.7301 50.2552 35.8133 50.1101 35.8696 49.9414C35.9281 49.7726 35.9573 49.587 35.9573 49.3845V46.4449H36.6087V49.3845C36.6087 49.6635 36.5637 49.9222 36.4737 50.1607C36.3859 50.3992 36.2588 50.6062 36.0923 50.7817C35.9281 50.955 35.7267 51.0911 35.4882 51.1901C35.2497 51.2891 34.9819 51.3386 34.6849 51.3386C34.3879 51.3386 34.1202 51.2891 33.8817 51.1901C33.6432 51.0911 33.4407 50.955 33.2742 50.7817C33.1077 50.6062 32.9794 50.3992 32.8894 50.1607C32.8017 49.9222 32.7578 49.6635 32.7578 49.3845V46.4449H33.4092V49.3811C33.4092 49.5836 33.4373 49.7692 33.4936 49.938C33.5521 50.1067 33.6353 50.2519 33.7433 50.3734C33.8536 50.4949 33.9874 50.5905 34.1449 50.6602C34.3047 50.7277 34.4847 50.7615 34.6849 50.7615ZM39.4669 48.426C39.4399 48.4755 39.3983 48.5002 39.342 48.5002C39.3083 48.5002 39.27 48.4879 39.2273 48.4631C39.1845 48.4384 39.1316 48.4114 39.0686 48.3821C39.0079 48.3506 38.9348 48.3225 38.8493 48.2977C38.7638 48.2707 38.6625 48.2572 38.5455 48.2572C38.4443 48.2572 38.3531 48.2707 38.2721 48.2977C38.1911 48.3225 38.1214 48.3574 38.0629 48.4024C38.0066 48.4474 37.9628 48.5002 37.9313 48.561C37.902 48.6195 37.8874 48.6836 37.8874 48.7534C37.8874 48.8411 37.9121 48.9142 37.9616 48.9727C38.0134 49.0312 38.0809 49.0819 38.1641 49.1246C38.2474 49.1674 38.3419 49.2056 38.4476 49.2394C38.5534 49.2709 38.6614 49.3057 38.7716 49.344C38.8841 49.38 38.9933 49.4205 39.099 49.4655C39.2048 49.5105 39.2993 49.5667 39.3825 49.6342C39.4658 49.7017 39.5321 49.785 39.5816 49.884C39.6334 49.9807 39.6593 50.0977 39.6593 50.235C39.6593 50.3925 39.6311 50.5387 39.5749 50.6737C39.5186 50.8065 39.4354 50.9224 39.3251 51.0214C39.2149 51.1181 39.0799 51.1946 38.9201 51.2509C38.7604 51.3071 38.5759 51.3353 38.3666 51.3353C38.1281 51.3353 37.9121 51.297 37.7186 51.2205C37.5251 51.1417 37.3609 51.0416 37.2259 50.9201L37.3676 50.6906C37.3856 50.6614 37.407 50.6389 37.4318 50.6231C37.4565 50.6074 37.488 50.5995 37.5263 50.5995C37.5668 50.5995 37.6095 50.6152 37.6545 50.6467C37.6995 50.6782 37.7535 50.7131 37.8165 50.7514C37.8818 50.7896 37.9605 50.8245 38.0528 50.856C38.145 50.8875 38.2598 50.9032 38.397 50.9032C38.514 50.9032 38.6164 50.8886 38.7041 50.8594C38.7919 50.8279 38.865 50.7862 38.9235 50.7345C38.982 50.6827 39.0248 50.6231 39.0518 50.5556C39.081 50.4881 39.0956 50.4161 39.0956 50.3396C39.0956 50.2451 39.0698 50.1675 39.018 50.1067C38.9685 50.0437 38.9021 49.9909 38.8189 49.9481C38.7356 49.9031 38.64 49.8649 38.532 49.8334C38.4263 49.7996 38.3171 49.7647 38.2046 49.7287C38.0944 49.6927 37.9853 49.6522 37.8773 49.6072C37.7715 49.56 37.677 49.5015 37.5938 49.4317C37.5105 49.362 37.443 49.2765 37.3913 49.1752C37.3418 49.0717 37.317 48.9469 37.317 48.8006C37.317 48.6701 37.344 48.5452 37.398 48.426C37.452 48.3045 37.5308 48.1987 37.6343 48.1087C37.7378 48.0165 37.8649 47.9434 38.0156 47.8894C38.1664 47.8354 38.3385 47.8084 38.532 47.8084C38.757 47.8084 38.9584 47.8444 39.1361 47.9164C39.3161 47.9861 39.4714 48.0829 39.6019 48.2066L39.4669 48.426ZM43.2072 47.8624V51.2812H42.8494C42.7639 51.2812 42.7099 51.2396 42.6874 51.1564L42.6402 50.7885C42.4917 50.9527 42.3252 51.0855 42.1407 51.1867C41.9562 51.2858 41.7447 51.3353 41.5062 51.3353C41.3194 51.3353 41.154 51.3049 41.01 51.2441C40.8683 51.1811 40.749 51.0934 40.6523 50.9809C40.5555 50.8684 40.4824 50.7322 40.4329 50.5725C40.3857 50.4127 40.362 50.2361 40.362 50.0426V47.8624H40.9628V50.0426C40.9628 50.3014 41.0213 50.5016 41.1383 50.6434C41.2575 50.7851 41.4387 50.856 41.6817 50.856C41.8594 50.856 42.0248 50.8144 42.1778 50.7311C42.333 50.6456 42.4759 50.5286 42.6064 50.3801V47.8624H43.2072ZM46.0126 49.7422C45.7358 49.7512 45.4996 49.7737 45.3038 49.8097C45.1103 49.8435 44.9517 49.8885 44.828 49.9447C44.7065 50.001 44.6176 50.0674 44.5613 50.1439C44.5073 50.2204 44.4803 50.3059 44.4803 50.4004C44.4803 50.4904 44.495 50.568 44.5242 50.6332C44.5535 50.6985 44.5928 50.7525 44.6423 50.7952C44.6941 50.8357 44.7537 50.8661 44.8212 50.8864C44.891 50.9044 44.9652 50.9134 45.044 50.9134C45.1497 50.9134 45.2465 50.9032 45.3342 50.883C45.422 50.8605 45.5041 50.829 45.5806 50.7885C45.6593 50.748 45.7336 50.6996 45.8033 50.6434C45.8753 50.5871 45.9451 50.523 46.0126 50.451V49.7422ZM44.072 48.345C44.261 48.1627 44.4646 48.0266 44.6828 47.9366C44.9011 47.8466 45.143 47.8016 45.4085 47.8016C45.5997 47.8016 45.7696 47.8331 45.9181 47.8961C46.0666 47.9591 46.1915 48.0469 46.2927 48.1594C46.394 48.2719 46.4705 48.408 46.5222 48.5677C46.574 48.7275 46.5998 48.903 46.5998 49.0942V51.2812H46.3332C46.2747 51.2812 46.2297 51.2722 46.1982 51.2542C46.1667 51.234 46.142 51.1957 46.124 51.1395L46.0565 50.8155C45.9665 50.8987 45.8787 50.973 45.7932 51.0382C45.7077 51.1012 45.6177 51.1552 45.5232 51.2002C45.4287 51.243 45.3275 51.2756 45.2195 51.2981C45.1137 51.3229 44.9956 51.3353 44.8651 51.3353C44.7323 51.3353 44.6075 51.3173 44.4905 51.2812C44.3735 51.243 44.2711 51.1867 44.1833 51.1125C44.0978 51.0382 44.0292 50.9449 43.9775 50.8324C43.928 50.7176 43.9032 50.5826 43.9032 50.4274C43.9032 50.2924 43.9403 50.163 44.0146 50.0392C44.0888 49.9132 44.2092 49.8019 44.3757 49.7051C44.5422 49.6084 44.7593 49.5296 45.0271 49.4689C45.2948 49.4059 45.6233 49.3699 46.0126 49.3609V49.0942C46.0126 48.8287 45.9552 48.6285 45.8405 48.4935C45.7257 48.3562 45.5581 48.2876 45.3376 48.2876C45.1891 48.2876 45.0642 48.3067 44.963 48.345C44.864 48.381 44.7773 48.4226 44.7031 48.4699C44.6311 48.5149 44.5681 48.5565 44.5141 48.5947C44.4623 48.6307 44.4106 48.6487 44.3588 48.6487C44.3183 48.6487 44.2835 48.6386 44.2542 48.6184C44.225 48.5959 44.2002 48.5689 44.18 48.5374L44.072 48.345ZM48.0853 48.5475C48.1933 48.3135 48.3261 48.1312 48.4836 48.0007C48.6411 47.868 48.8334 47.8016 49.0607 47.8016C49.1327 47.8016 49.2013 47.8095 49.2666 47.8252C49.3341 47.841 49.3937 47.8657 49.4454 47.8995L49.4016 48.3484C49.3881 48.4046 49.3543 48.4327 49.3003 48.4327C49.2688 48.4327 49.2227 48.426 49.1619 48.4125C49.1012 48.399 49.0326 48.3922 48.9561 48.3922C48.8481 48.3922 48.7513 48.408 48.6658 48.4395C48.5826 48.471 48.5072 48.5182 48.4397 48.5812C48.3744 48.642 48.3148 48.7185 48.2608 48.8107C48.2091 48.9007 48.1618 49.0042 48.1191 49.1212V51.2812H47.5149V47.8624H47.8592C47.9244 47.8624 47.9694 47.8747 47.9942 47.8995C48.0189 47.9242 48.0358 47.967 48.0448 48.0277L48.0853 48.5475ZM50.6082 47.8624V51.2812H50.0074V47.8624H50.6082ZM50.7364 46.7891C50.7364 46.8476 50.7241 46.9027 50.6993 46.9545C50.6768 47.004 50.6453 47.049 50.6048 47.0895C50.5666 47.1277 50.5204 47.1581 50.4664 47.1806C50.4147 47.2031 50.3596 47.2144 50.3011 47.2144C50.2426 47.2144 50.1874 47.2031 50.1357 47.1806C50.0862 47.1581 50.0423 47.1277 50.0041 47.0895C49.9658 47.049 49.9354 47.004 49.9129 46.9545C49.8904 46.9027 49.8792 46.8476 49.8792 46.7891C49.8792 46.7306 49.8904 46.6755 49.9129 46.6237C49.9354 46.5697 49.9658 46.5236 50.0041 46.4854C50.0423 46.4449 50.0862 46.4134 50.1357 46.3909C50.1874 46.3684 50.2426 46.3571 50.3011 46.3571C50.3596 46.3571 50.4147 46.3684 50.4664 46.3909C50.5204 46.4134 50.5666 46.4449 50.6048 46.4854C50.6453 46.5236 50.6768 46.5697 50.6993 46.6237C50.7241 46.6755 50.7364 46.7306 50.7364 46.7891ZM53.0364 47.8084C53.2861 47.8084 53.5111 47.85 53.7114 47.9332C53.9116 48.0165 54.0826 48.1346 54.2244 48.2876C54.3661 48.4406 54.4741 48.6262 54.5484 48.8445C54.6249 49.0605 54.6631 49.3024 54.6631 49.5701C54.6631 49.8401 54.6249 50.0831 54.5484 50.2991C54.4741 50.5151 54.3661 50.6996 54.2244 50.8526C54.0826 51.0056 53.9116 51.1237 53.7114 51.207C53.5111 51.288 53.2861 51.3285 53.0364 51.3285C52.7844 51.3285 52.5571 51.288 52.3546 51.207C52.1544 51.1237 51.9834 51.0056 51.8416 50.8526C51.6999 50.6996 51.5908 50.5151 51.5143 50.2991C51.44 50.0831 51.4029 49.8401 51.4029 49.5701C51.4029 49.3024 51.44 49.0605 51.5143 48.8445C51.5908 48.6262 51.6999 48.4406 51.8416 48.2876C51.9834 48.1346 52.1544 48.0165 52.3546 47.9332C52.5571 47.85 52.7844 47.8084 53.0364 47.8084ZM53.0364 50.8594C53.3739 50.8594 53.6259 50.7469 53.7924 50.5219C53.9589 50.2946 54.0421 49.9785 54.0421 49.5735C54.0421 49.1662 53.9589 48.849 53.7924 48.6217C53.6259 48.3945 53.3739 48.2809 53.0364 48.2809C52.8654 48.2809 52.7158 48.3101 52.5875 48.3686C52.4615 48.4271 52.3558 48.5115 52.2703 48.6217C52.187 48.732 52.124 48.8681 52.0813 49.0301C52.0408 49.1899 52.0205 49.371 52.0205 49.5735C52.0205 49.9785 52.1038 50.2946 52.2703 50.5219C52.439 50.7469 52.6944 50.8594 53.0364 50.8594ZM57.4163 48.426C57.3893 48.4755 57.3477 48.5002 57.2915 48.5002C57.2577 48.5002 57.2195 48.4879 57.1767 48.4631C57.134 48.4384 57.0811 48.4114 57.0181 48.3821C56.9573 48.3506 56.8842 48.3225 56.7987 48.2977C56.7132 48.2707 56.612 48.2572 56.495 48.2572C56.3937 48.2572 56.3026 48.2707 56.2216 48.2977C56.1406 48.3225 56.0708 48.3574 56.0123 48.4024C55.9561 48.4474 55.9122 48.5002 55.8807 48.561C55.8515 48.6195 55.8368 48.6836 55.8368 48.7534C55.8368 48.8411 55.8616 48.9142 55.9111 48.9727C55.9628 49.0312 56.0303 49.0819 56.1136 49.1246C56.1968 49.1674 56.2913 49.2056 56.3971 49.2394C56.5028 49.2709 56.6108 49.3057 56.7211 49.344C56.8336 49.38 56.9427 49.4205 57.0485 49.4655C57.1542 49.5105 57.2487 49.5667 57.332 49.6342C57.4152 49.7017 57.4816 49.785 57.5311 49.884C57.5828 49.9807 57.6087 50.0977 57.6087 50.235C57.6087 50.3925 57.5806 50.5387 57.5243 50.6737C57.4681 50.8065 57.3848 50.9224 57.2746 51.0214C57.1643 51.1181 57.0293 51.1946 56.8696 51.2509C56.7098 51.3071 56.5253 51.3353 56.3161 51.3353C56.0776 51.3353 55.8616 51.297 55.6681 51.2205C55.4746 51.1417 55.3103 51.0416 55.1753 50.9201L55.3171 50.6906C55.3351 50.6614 55.3565 50.6389 55.3812 50.6231C55.406 50.6074 55.4375 50.5995 55.4757 50.5995C55.5162 50.5995 55.559 50.6152 55.604 50.6467C55.649 50.6782 55.703 50.7131 55.766 50.7514C55.8312 50.7896 55.91 50.8245 56.0022 50.856C56.0945 50.8875 56.2092 50.9032 56.3465 50.9032C56.4635 50.9032 56.5658 50.8886 56.6536 50.8594C56.7413 50.8279 56.8145 50.7862 56.873 50.7345C56.9315 50.6827 56.9742 50.6231 57.0012 50.5556C57.0305 50.4881 57.0451 50.4161 57.0451 50.3396C57.0451 50.2451 57.0192 50.1675 56.9675 50.1067C56.918 50.0437 56.8516 49.9909 56.7683 49.9481C56.6851 49.9031 56.5895 49.8649 56.4815 49.8334C56.3757 49.7996 56.2666 49.7647 56.1541 49.7287C56.0438 49.6927 55.9347 49.6522 55.8267 49.6072C55.721 49.56 55.6265 49.5015 55.5432 49.4317C55.46 49.362 55.3925 49.2765 55.3407 49.1752C55.2912 49.0717 55.2665 48.9469 55.2665 48.8006C55.2665 48.6701 55.2935 48.5452 55.3475 48.426C55.4015 48.3045 55.4802 48.1987 55.5837 48.1087C55.6872 48.0165 55.8143 47.9434 55.9651 47.8894C56.1158 47.8354 56.288 47.8084 56.4815 47.8084C56.7065 47.8084 56.9078 47.8444 57.0856 47.9164C57.2656 47.9861 57.4208 48.0829 57.5513 48.2066L57.4163 48.426Z" fill="white" fill-opacity="0.9"/>
</svg>
